<svg width="12" height="13" viewBox="0 0 12 13" fill="none" xmlns="http://www.w3.org/2000/svg">
<path d="M6 1.5C3.245 1.5 1 3.745 1 6.5C1 9.255 3.245 11.5 6 11.5C8.755 11.5 11 9.255 11 6.5C11 3.745 8.755 1.5 6 1.5ZM8.175 8.285C8.105 8.405 7.98 8.47 7.85 8.47C7.785 8.47 7.72 8.455 7.66 8.415L6.11 7.49C5.725 7.26 5.44 6.755 5.44 6.31V4.26C5.44 4.055 5.61 3.885 5.815 3.885C6.02 3.885 6.19 4.055 6.19 4.26V6.31C6.19 6.49 6.34 6.755 6.495 6.845L8.045 7.77C8.225 7.875 8.285 8.105 8.175 8.285Z" fill="#D0D0D0"/>
</svg>
