<svg width="13" height="13" viewBox="0 0 13 13" fill="none" xmlns="http://www.w3.org/2000/svg">
<path d="M10.3576 4.57061L8.09261 2.30561C7.61761 1.83061 6.96261 1.57561 6.29261 1.61061L3.79261 1.73061C2.79261 1.77561 1.99761 2.57061 1.94761 3.56561L1.82761 6.06561C1.79761 6.73561 2.04761 7.39061 2.52261 7.86561L4.78761 10.1306C5.71761 11.0606 7.22761 11.0606 8.16261 10.1306L10.3576 7.93561C11.2926 7.01061 11.2926 5.50061 10.3576 4.57061ZM5.19261 6.41061C4.39761 6.41061 3.75261 5.76561 3.75261 4.97061C3.75261 4.17561 4.39761 3.53061 5.19261 3.53061C5.98761 3.53061 6.63261 4.17561 6.63261 4.97061C6.63261 5.76561 5.98761 6.41061 5.19261 6.41061Z" fill="#969697"/>
</svg>
