<svg width="20" height="21" viewBox="0 0 20 21" fill="none" xmlns="http://www.w3.org/2000/svg">
<path d="M7.08366 16.3761H6.66699C3.33366 16.3761 1.66699 15.5428 1.66699 11.3761V7.20947C1.66699 3.87614 3.33366 2.20947 6.66699 2.20947H13.3337C16.667 2.20947 18.3337 3.87614 18.3337 7.20947V11.3761C18.3337 14.7095 16.667 16.3761 13.3337 16.3761H12.917C12.6587 16.3761 12.4087 16.5011 12.2503 16.7095L11.0003 18.3761C10.4503 19.1095 9.55033 19.1095 9.00033 18.3761L7.75033 16.7095C7.61699 16.5261 7.30866 16.3761 7.08366 16.3761Z" stroke="#3A6860" stroke-width="2" stroke-miterlimit="10" stroke-linecap="round" stroke-linejoin="round"/>
<path d="M5.83301 7.20947H14.1663" stroke="#3A6860" stroke-width="2" stroke-linecap="round" stroke-linejoin="round"/>
<path d="M5.83301 11.3765H10.833" stroke="#3A6860" stroke-width="2" stroke-linecap="round" stroke-linejoin="round"/>
</svg>
