<svg width="12" height="13" viewBox="0 0 12 13" fill="none" xmlns="http://www.w3.org/2000/svg">
<path d="M10.8793 8.04594L7.67926 2.28594C7.24926 1.51094 6.65426 1.08594 5.99926 1.08594C5.34426 1.08594 4.74926 1.51094 4.31926 2.28594L1.11926 8.04594C0.714256 8.78094 0.669256 9.48594 0.994256 10.0409C1.31926 10.5959 1.95926 10.9009 2.79926 10.9009H9.19925C10.0393 10.9009 10.6793 10.5959 11.0043 10.0409C11.3293 9.48594 11.2843 8.77594 10.8793 8.04594ZM5.62426 4.58594C5.62426 4.38094 5.79426 4.21094 5.99926 4.21094C6.20426 4.21094 6.37426 4.38094 6.37426 4.58594V7.08594C6.37426 7.29094 6.20426 7.46094 5.99926 7.46094C5.79426 7.46094 5.62426 7.29094 5.62426 7.08594V4.58594ZM6.35426 8.94094C6.32926 8.96094 6.30426 8.98094 6.27926 9.00094C6.24926 9.02094 6.21926 9.03594 6.18926 9.04594C6.15926 9.06094 6.12926 9.07094 6.09426 9.07594C6.06426 9.08094 6.02926 9.08594 5.99926 9.08594C5.96926 9.08594 5.93426 9.08094 5.89926 9.07594C5.86926 9.07094 5.83926 9.06094 5.80926 9.04594C5.77926 9.03594 5.74926 9.02094 5.71926 9.00094C5.69426 8.98094 5.66926 8.96094 5.64426 8.94094C5.55426 8.84594 5.49926 8.71594 5.49926 8.58594C5.49926 8.45594 5.55426 8.32594 5.64426 8.23094C5.66926 8.21094 5.69426 8.19094 5.71926 8.17094C5.74926 8.15094 5.77926 8.13594 5.80926 8.12594C5.83926 8.11094 5.86926 8.10094 5.89926 8.09594C5.96426 8.08094 6.03426 8.08094 6.09426 8.09594C6.12926 8.10094 6.15926 8.11094 6.18926 8.12594C6.21926 8.13594 6.24926 8.15094 6.27926 8.17094C6.30426 8.19094 6.32926 8.21094 6.35426 8.23094C6.44426 8.32594 6.49926 8.45594 6.49926 8.58594C6.49926 8.71594 6.44426 8.84594 6.35426 8.94094Z" fill="#AEAEAE"/>
</svg>
