<svg width="72" height="88" viewBox="0 0 72 88" fill="none" xmlns="http://www.w3.org/2000/svg">
<g opacity="0.3">
<path opacity="0.3" d="M50.2812 18.6803C48.313 18.6784 46.426 17.8956 45.0343 16.5039C43.6426 15.1121 42.8599 13.225 42.858 11.2568V0.953125H9.68757C7.11888 0.953125 4.65536 1.97333 2.83869 3.78941C1.02202 5.60548 0.000954548 8.06874 0 10.6375V69.0392C0.00286225 71.6067 1.02477 74.0681 2.84124 75.8826C4.65771 77.6971 7.12013 78.7164 9.68757 78.7164H49.5036C50.7761 78.7168 52.0362 78.4666 53.212 77.9799C54.3877 77.4933 55.4561 76.7797 56.3561 75.8801C57.256 74.9804 57.9699 73.9123 58.457 72.7366C58.9441 71.561 59.1948 70.3009 59.1948 69.0284V18.6803H50.2812Z" fill="#A140FF"/>
</g>
<path d="M59.1942 18.6803H50.2806C48.3124 18.6784 46.4254 17.8956 45.0337 16.5039C43.642 15.1121 42.8593 13.225 42.8574 11.2568V0.953125L59.1942 18.6803Z" fill="#A140FF"/>
<path d="M66.2178 62.375H21.2034C18.0103 62.375 15.4219 64.9636 15.4219 68.1569V81.5782C15.4219 84.7714 18.0103 87.36 21.2034 87.36H66.2178C69.4109 87.36 71.9994 84.7714 71.9994 81.5782V68.1569C71.9994 64.9636 69.4109 62.375 66.2178 62.375Z" fill="#A140FF"/>
<path d="M28.2925 77.7734V80.3904H25.582V77.7734H28.2925Z" fill="white"/>
<path d="M41.8263 69.6406V80.3857H39.2094V73.6759L36.8805 80.3965H34.6164L32.2731 73.6615V80.3965H29.6562V69.6514H32.8563L35.7791 77.1352L38.6587 69.6514L41.8263 69.6406Z" fill="white"/>
<path d="M46.2516 76.5927V80.3868H43.6348V69.5625H47.8786C49.1637 69.5625 50.1463 69.8829 50.8194 70.52C51.16 70.8547 51.426 71.2578 51.5997 71.7026C51.7734 72.1474 51.851 72.624 51.8273 73.101C51.8397 73.7302 51.6844 74.3515 51.3774 74.9008C51.0629 75.4366 50.597 75.8675 50.0384 76.1391C49.3645 76.459 48.6243 76.6145 47.8786 76.5927H46.2516ZM49.1601 73.101C49.1601 72.1411 48.6345 71.6611 47.5834 71.6611H46.2516V74.4797H47.5834C48.6345 74.4893 49.1601 74.0297 49.1601 73.101Z" fill="white"/>
<path d="M52.8848 78.3953V76.1959L57.8305 69.4141H60.6454V76.1059H61.9485V78.3845H60.6454V80.3751H57.9962V78.3845L52.8848 78.3953ZM58.2121 72.4558L55.5485 76.1167H58.2121V72.4558Z" fill="white"/>
<path d="M42.9977 48.4459V31.2696C42.9968 31.1862 42.9884 31.103 42.9726 31.0212C42.9687 30.9967 42.9627 30.9726 42.9546 30.9492C42.9416 30.8929 42.9247 30.8375 42.9041 30.7836C42.8948 30.7589 42.8841 30.7349 42.8718 30.7116C42.8497 30.659 42.8232 30.6084 42.7926 30.5603L42.7565 30.5028C42.7112 30.4375 42.6607 30.3761 42.6054 30.3191L42.5801 30.2975C42.5311 30.2514 42.4794 30.2081 42.4254 30.1679L42.3605 30.1283L42.2165 30.0491L42.141 30.0167C42.0846 29.9949 42.0269 29.9769 41.9682 29.9627H41.9105C41.8288 29.9454 41.7456 29.937 41.6621 29.9375H17.4126C17.0793 29.968 16.7693 30.1219 16.5436 30.369C16.3179 30.616 16.1925 30.9385 16.1921 31.2732C16.1921 31.2948 16.1921 31.3128 16.1921 31.3344V48.5071C16.1834 48.7281 16.2536 48.9451 16.3901 49.1191C16.5082 49.3186 16.6762 49.4839 16.8776 49.5988C17.0789 49.7137 17.3067 49.7742 17.5385 49.7743H41.6585C42.0113 49.7725 42.3492 49.6323 42.5997 49.3839C42.8501 49.1354 42.993 48.7986 42.9977 48.4459ZM17.6393 33.1705V30.5639H19.7597V33.1705H17.6393ZM21.2177 33.1705V30.5639H23.3382V33.1705H21.2177ZM24.7961 33.1705V30.5639H26.9165V33.1705H24.7961ZM28.3746 33.1705V30.5639H30.4949V33.1705H28.3746ZM31.9529 33.1705V30.5639H34.0733V33.1705H31.9529ZM35.5313 33.1705V30.5639H37.6518V33.1705H35.5313ZM39.1097 33.1705V30.5639H41.2301V33.1705H39.1097ZM17.1497 45.8106V33.8761H42.0726V45.8106H17.1497ZM17.6357 49.1191V46.5126H19.7561V49.1191H17.6357ZM21.2141 49.1191V46.5126H23.3346V49.1191H21.2141ZM24.7926 49.1191V46.5126H26.9129V49.1191H24.7926ZM28.371 49.1191V46.5126H30.4913V49.1191H28.371ZM31.9493 49.1191V46.5126H34.0697V49.1191H31.9493ZM35.5277 49.1191V46.5126H37.6482V49.1191H35.5277ZM39.1061 49.1191V46.5126H41.2265V49.1191H39.1061Z" fill="#A140FF"/>
<path d="M32.4787 38.9583L29.0339 36.9677C28.8557 36.8656 28.6539 36.8121 28.4485 36.8125C28.2432 36.8129 28.0415 36.8672 27.8637 36.9699C27.6859 37.0727 27.5382 37.2203 27.4353 37.398C27.3324 37.5758 27.2779 37.7774 27.2773 37.9828V41.964C27.2779 42.1694 27.3324 42.371 27.4353 42.5487C27.5382 42.7265 27.6859 42.8741 27.8637 42.9768C28.0415 43.0796 28.2432 43.1339 28.4485 43.1343C28.6539 43.1347 28.8557 43.0812 29.0339 42.9791L32.4787 40.9885C32.6565 40.8854 32.8041 40.7373 32.9067 40.5591C33.0093 40.381 33.0634 40.179 33.0634 39.9734C33.0634 39.7678 33.0093 39.5658 32.9067 39.3876C32.8041 39.2095 32.6565 39.0614 32.4787 38.9583Z" fill="#A140FF"/>
</svg>
