<svg width="12" height="13" viewBox="0 0 12 13" fill="none" xmlns="http://www.w3.org/2000/svg">
<path d="M10.125 3.98633H1.875C1.66789 3.98633 1.5 4.15422 1.5 4.36133V10.3613C1.5 10.5684 1.66789 10.7363 1.875 10.7363H10.125C10.3321 10.7363 10.5 10.5684 10.5 10.3613V4.36133C10.5 4.15422 10.3321 3.98633 10.125 3.98633Z" stroke="#CCDDDA" stroke-linecap="round" stroke-linejoin="round"/>
<path d="M7.875 3.98633V3.23633C7.875 3.03742 7.79598 2.84665 7.65533 2.706C7.51468 2.56535 7.32391 2.48633 7.125 2.48633H4.875C4.67609 2.48633 4.48532 2.56535 4.34467 2.706C4.20402 2.84665 4.125 3.03742 4.125 3.23633V3.98633" stroke="#CCDDDA" stroke-linecap="round" stroke-linejoin="round"/>
<path d="M6 6.23633V8.48633" stroke="#CCDDDA" stroke-linecap="round" stroke-linejoin="round"/>
<path d="M7.125 7.36133H4.875" stroke="#CCDDDA" stroke-linecap="round" stroke-linejoin="round"/>
</svg>
