<svg width="13" height="13" viewBox="0 0 13 13" fill="none" xmlns="http://www.w3.org/2000/svg">
<path d="M6.48453 10.0654C6.62189 10.0974 6.63448 10.2773 6.50068 10.3219L5.71068 10.5819C3.72568 11.2219 2.68068 10.6869 2.03568 8.70188L1.39568 6.72688C0.755678 4.74188 1.28568 3.69187 3.27068 3.05187C3.576 2.95076 3.88 3.25947 3.80293 3.57172C3.79883 3.58834 3.79475 3.60505 3.79068 3.62188L3.30068 5.71688C2.75068 8.07188 3.55568 9.37188 5.91068 9.93188L6.48453 10.0654Z" fill="#AEAEAE"/>
<path d="M8.7306 1.69021L7.8956 1.49521C6.2256 1.10021 5.2306 1.42521 4.6456 2.63521C4.4956 2.94021 4.3756 3.31021 4.2756 3.73521L3.7856 5.83021C3.2956 7.92021 3.9406 8.95021 6.0256 9.44521L6.8656 9.64521C7.1556 9.71521 7.4256 9.76021 7.6756 9.78021C9.2356 9.93021 10.0656 9.20021 10.4856 7.39521L10.9756 5.30521C11.4656 3.21521 10.8256 2.18021 8.7306 1.69021ZM7.7906 6.75021C7.7456 6.92021 7.5956 7.03021 7.4256 7.03021C7.3956 7.03021 7.3656 7.02521 7.3306 7.02021L5.8756 6.65021C5.6756 6.60021 5.5556 6.39521 5.6056 6.19521C5.6556 5.99521 5.8606 5.87521 6.0606 5.92521L7.5156 6.29521C7.7206 6.34521 7.8406 6.55021 7.7906 6.75021ZM9.2556 5.06021C9.2106 5.23021 9.0606 5.34021 8.8906 5.34021C8.8606 5.34021 8.8306 5.33521 8.7956 5.33021L6.3706 4.71521C6.1706 4.66521 6.0506 4.46021 6.1006 4.26021C6.1506 4.06021 6.3556 3.94021 6.5556 3.99021L8.9806 4.60521C9.1856 4.65021 9.3056 4.85521 9.2556 5.06021Z" fill="#AEAEAE"/>
</svg>
