<svg width="32" height="38" viewBox="0 0 32 38" fill="none" xmlns="http://www.w3.org/2000/svg">
<g opacity="0.3">
<path opacity="0.3" d="M22.3472 7.79759C21.4725 7.79675 20.6338 7.45251 20.0152 6.84044C19.3967 6.22837 19.0488 5.39847 19.048 4.53288V0H4.3056C3.16368 0 2.06854 0.448893 1.26108 1.24791C0.453627 2.04692 0 3.13058 0 4.26056V29.9443C0.00169574 31.0732 0.456067 32.1553 1.26334 32.9529C2.07061 33.7506 3.16479 34.1986 4.3056 34.1986H22.0032C23.144 34.1986 24.2382 33.7506 25.0455 32.9529C25.8527 32.1553 26.3071 31.0732 26.3088 29.9443V7.79759H22.3472Z" fill="#FF3E4C"/>
</g>
<path d="M26.3087 7.79759H22.3471C21.4723 7.79675 20.6336 7.45251 20.0151 6.84044C19.3966 6.22837 19.0487 5.39847 19.0479 4.53288V0L26.3087 7.79759Z" fill="#FF3E4C"/>
<path d="M20.8957 23.8812H4.37734C4.21821 23.8812 4.0656 23.8186 3.95308 23.7073C3.84055 23.5959 3.77734 23.4449 3.77734 23.2875C3.77777 23.1303 3.84117 22.9796 3.95364 22.8686C4.06612 22.7576 4.21849 22.6953 4.37734 22.6953H20.8957C21.0544 22.6953 21.2067 22.7577 21.3189 22.8687C21.4311 22.9798 21.4941 23.1304 21.4941 23.2875C21.4944 23.3653 21.479 23.4425 21.4491 23.5145C21.4191 23.5866 21.375 23.652 21.3194 23.7072C21.2639 23.7623 21.1978 23.8061 21.1251 23.836C21.0524 23.8658 20.9745 23.8812 20.8957 23.8812Z" fill="#FF3E4C"/>
<path d="M20.8957 17.1937H4.37734C4.21849 17.1937 4.06612 17.1313 3.95364 17.0203C3.84117 16.9093 3.77777 16.7587 3.77734 16.6015C3.77734 16.4441 3.84055 16.293 3.95308 16.1817C4.0656 16.0703 4.21821 16.0078 4.37734 16.0078H20.8957C20.9745 16.0078 21.0524 16.0232 21.1251 16.053C21.1978 16.0829 21.2639 16.1266 21.3194 16.1818C21.375 16.2369 21.4191 16.3024 21.4491 16.3744C21.479 16.4465 21.4944 16.5236 21.4941 16.6015C21.4941 16.7586 21.4311 16.9092 21.3189 17.0202C21.2067 17.1313 21.0544 17.1937 20.8957 17.1937Z" fill="#FF3E4C"/>
<path d="M20.8957 20.5374H4.37734C4.21821 20.5374 4.0656 20.4749 3.95308 20.3635C3.84055 20.2522 3.77734 20.1012 3.77734 19.9437C3.77777 19.7865 3.84117 19.6359 3.95364 19.5249C4.06612 19.4139 4.21849 19.3516 4.37734 19.3516H20.8957C21.0544 19.3516 21.2067 19.414 21.3189 19.525C21.4311 19.6361 21.4941 19.7867 21.4941 19.9437C21.4944 20.0216 21.479 20.0988 21.4491 20.1708C21.4191 20.2428 21.375 20.3083 21.3194 20.3634C21.2639 20.4186 21.1978 20.4623 21.1251 20.4922C21.0524 20.5221 20.9745 20.5374 20.8957 20.5374Z" fill="#FF3E4C"/>
<path d="M14.3805 13.8499H4.37734C4.21849 13.8499 4.06612 13.7876 3.95364 13.6766C3.84117 13.5656 3.77777 13.415 3.77734 13.2578C3.77734 13.1003 3.84055 12.9493 3.95308 12.838C4.0656 12.7266 4.21821 12.6641 4.37734 12.6641H14.3805C14.5394 12.6645 14.6916 12.7272 14.8038 12.8385C14.916 12.9498 14.9789 13.1006 14.9789 13.2578C14.9785 13.4147 14.9153 13.5651 14.8032 13.676C14.6911 13.787 14.5391 13.8495 14.3805 13.8499Z" fill="#FF3E4C"/>
<path d="M14.3805 10.5062H4.37734C4.21849 10.5062 4.06612 10.4438 3.95364 10.3328C3.84117 10.2218 3.77777 10.0712 3.77734 9.91404C3.77734 9.75657 3.84055 9.60552 3.95308 9.49418C4.0656 9.38283 4.21821 9.32031 4.37734 9.32031H14.3805C14.5394 9.32073 14.6916 9.38346 14.8038 9.49476C14.916 9.60606 14.9789 9.75685 14.9789 9.91404C14.9785 10.071 14.9153 10.2213 14.8032 10.3323C14.6911 10.4432 14.5391 10.5058 14.3805 10.5062Z" fill="#FF3E4C"/>
<path d="M29.4305 27.0156H9.42409C8.00494 27.0156 6.85449 28.154 6.85449 29.5584V35.4608C6.85449 36.8651 8.00494 38.0035 9.42409 38.0035H29.4305C30.8496 38.0035 32.0001 36.8651 32.0001 35.4608V29.5584C32.0001 28.154 30.8496 27.0156 29.4305 27.0156Z" fill="#FF3E4C"/>
<path d="M13.4169 33.7812V34.9321H12.2139V33.7812H13.4169Z" fill="white"/>
<path d="M15.1875 33.262V34.9321H14.0244V30.1719H15.909C16.4801 30.1719 16.9168 30.3128 17.216 30.593C17.3674 30.7402 17.4856 30.9174 17.5628 31.113C17.64 31.3086 17.6745 31.5182 17.6639 31.728C17.6698 32.0048 17.6007 32.278 17.464 32.5195C17.3243 32.7556 17.1173 32.9457 16.8689 33.0657C16.5692 33.2059 16.2402 33.2737 15.909 33.2636L15.1875 33.262ZM16.4801 31.728C16.4801 31.3059 16.2465 31.0948 15.7794 31.0948H15.1875V32.3343H15.7794C16.2465 32.3385 16.4801 32.1364 16.4801 31.728Z" fill="white"/>
<path d="M22.2598 33.7853C22.0595 34.1452 21.7569 34.4392 21.3895 34.6307C20.9761 34.8401 20.5164 34.944 20.0521 34.933H18.2363V30.1728H20.0521C20.5167 30.1612 20.9771 30.2628 21.3927 30.4688C21.7591 30.6562 22.0609 30.9471 22.2598 31.3046C22.468 31.6842 22.5727 32.1108 22.5638 32.5426C22.5724 32.9758 22.4677 33.4039 22.2598 33.7853ZM21.0088 33.5462C21.1388 33.4142 21.2396 33.2567 21.3046 33.0838C21.3696 32.911 21.3974 32.7267 21.3863 32.5426C21.3975 32.3588 21.3697 32.1746 21.3047 32.002C21.2397 31.8294 21.1389 31.6722 21.0088 31.5405C20.7178 31.2879 20.3377 31.1593 19.9513 31.1827H19.3994V33.9024H19.9513C20.3374 33.9256 20.7172 33.7977 21.0088 33.5462Z" fill="white"/>
<path d="M26.3608 30.1719V31.0885H24.3883V32.1317H25.9113V33.0071H24.3883V34.9321H23.2236V30.1719H26.3608Z" fill="white"/>
<path d="M20.603 9.32031H17.7745C17.2815 9.32031 16.8818 9.7158 16.8818 10.2037V13.0025C16.8818 13.4904 17.2815 13.8859 17.7745 13.8859H20.603C21.096 13.8859 21.4956 13.4904 21.4956 13.0025V10.2037C21.4956 9.7158 21.096 9.32031 20.603 9.32031Z" fill="#FF3E4C"/>
</svg>
