<svg width="72" height="87" viewBox="0 0 72 87" fill="none" xmlns="http://www.w3.org/2000/svg">
<g opacity="0.3">
<path opacity="0.3" d="M50.2812 17.8159C48.313 17.814 46.426 17.0313 45.0343 15.6396C43.6426 14.2479 42.8599 12.3609 42.858 10.3927V0.0859375H9.6876C7.11829 0.0859375 4.65421 1.10662 2.83743 2.9234C1.02066 4.74018 0 7.2042 0 9.77351V68.1727C0.00381541 70.7395 1.02616 73.1999 2.84252 75.0136C4.65888 76.8272 7.12078 77.8459 9.6876 77.8459H49.5036C50.7761 77.8464 52.0362 77.5962 53.212 77.1096C54.3878 76.623 55.4561 75.9094 56.3561 75.0098C57.2561 74.1102 57.97 73.0421 58.457 71.8665C58.9441 70.6909 59.1948 69.4309 59.1948 68.1584V17.8015L50.2812 17.8159Z" fill="#00C650"/>
</g>
<path d="M59.1942 17.8159H50.2806C48.3125 17.814 46.4254 17.0313 45.0337 15.6396C43.642 14.2479 42.8593 12.3609 42.8574 10.3927V0.0859375L59.1942 17.8159Z" fill="#00C650"/>
<path d="M66.2179 61.5078H21.2035C18.0104 61.5078 15.4219 64.0963 15.4219 67.2894V80.7102C15.4219 83.9033 18.0104 86.4918 21.2035 86.4918H66.2179C69.411 86.4918 71.9995 83.9033 71.9995 80.7102V67.2894C71.9995 64.0963 69.411 61.5078 66.2179 61.5078Z" fill="#00C650"/>
<path d="M28.9753 76.8125V79.4222H26.2793V76.8125H28.9753Z" fill="white"/>
<path d="M38.6631 69.6165C39.574 70.3538 40.1929 71.3912 40.4089 72.543H37.6516C37.4677 72.065 37.1425 71.6544 36.7193 71.3659C36.2741 71.074 35.7506 70.9246 35.2183 70.9376C34.8674 70.927 34.5188 70.997 34.1993 71.1425C33.8797 71.2879 33.5979 71.5047 33.3754 71.7762C32.8807 72.4157 32.6317 73.2114 32.6735 74.0188C32.6314 74.8229 32.8806 75.6153 33.3754 76.2505C33.5987 76.5206 33.881 76.7359 34.2004 76.88C34.5199 77.0241 34.8681 77.0932 35.2183 77.082C35.7506 77.095 36.2741 76.9456 36.7193 76.6536C37.1423 76.371 37.4698 75.9669 37.6588 75.4946H40.4161C40.1955 76.6427 39.5774 77.6763 38.6703 78.4139C37.697 79.162 36.4917 79.5443 35.2651 79.4937C34.2991 79.5149 33.3452 79.2748 32.5043 78.7989C31.7163 78.3433 31.0784 77.6679 30.6685 76.8552C30.2249 75.9727 30.0025 74.9956 30.0206 74.008C30.0021 73.0193 30.2244 72.0408 30.6685 71.1571C31.0784 70.3445 31.7163 69.669 32.5043 69.2134C33.3452 68.7375 34.2991 68.4975 35.2651 68.5187C36.4912 68.4766 37.6934 68.8649 38.6631 69.6165Z" fill="white"/>
<path d="M49.1867 77.9508C48.8764 78.4459 48.4321 78.8428 47.9052 79.0954C47.264 79.3956 46.5612 79.541 45.8535 79.5201C44.7877 79.5633 43.7374 79.2533 42.8659 78.6383C42.481 78.3489 42.166 77.9768 41.9442 77.5494C41.7224 77.122 41.5995 76.6503 41.5844 76.169H44.3597C44.3789 76.5317 44.5345 76.8737 44.7952 77.1265C45.0531 77.3679 45.3961 77.4973 45.7491 77.4864C46.0385 77.5012 46.3224 77.4031 46.541 77.2129C46.6358 77.119 46.7104 77.0067 46.7599 76.8829C46.8094 76.759 46.8329 76.6263 46.829 76.493C46.8323 76.367 46.8105 76.2416 46.7648 76.1241C46.719 76.0067 46.6503 75.8996 46.5626 75.8091C46.3735 75.6171 46.1485 75.4642 45.9003 75.3591C45.6339 75.2403 45.2704 75.0999 44.8024 74.9379C44.2312 74.75 43.6732 74.524 43.1322 74.2613C42.6877 74.0314 42.3059 73.6966 42.02 73.2858C41.6911 72.7874 41.5285 72.1976 41.5556 71.6012C41.5409 71.0098 41.7108 70.4286 42.0416 69.9382C42.3817 69.4591 42.8494 69.085 43.3914 68.8583C44.0186 68.6046 44.6912 68.482 45.3676 68.4984C46.3902 68.4442 47.4 68.7456 48.2256 69.3514C48.578 69.6371 48.8665 69.9937 49.0724 70.398C49.2782 70.8023 49.3969 71.2453 49.4206 71.6983H46.6022C46.5675 71.3818 46.4311 71.085 46.2134 70.8525C46.1009 70.7459 45.9679 70.6632 45.8225 70.6093C45.6772 70.5555 45.5224 70.5317 45.3676 70.5393C45.0985 70.5255 44.834 70.6128 44.6261 70.784C44.5287 70.8757 44.453 70.9878 44.4045 71.1124C44.3559 71.2369 44.3357 71.3706 44.3453 71.504C44.3422 71.6233 44.3629 71.742 44.4062 71.8533C44.4494 71.9645 44.5144 72.066 44.5973 72.1519C44.7757 72.3397 44.9915 72.4881 45.2308 72.5874C45.4827 72.699 45.8499 72.8431 46.3106 73.0158C46.8924 73.203 47.4592 73.434 48.006 73.7069C48.4545 73.9481 48.8403 74.2907 49.1327 74.7076C49.4665 75.2121 49.6316 75.8095 49.6042 76.4138C49.6069 76.9545 49.4625 77.4857 49.1867 77.9508Z" fill="white"/>
<path d="M53.0787 68.6406L55.7172 76.7504L58.3556 68.6406H61.1453L57.3945 79.4177H54.0254L50.2891 68.6406H53.0787Z" fill="white"/>
<path d="M42.7996 54.375H16.3936C14.1076 54.375 12.25 52.0997 12.25 49.2989V30.1506C12.25 27.3534 14.1076 25.0781 16.3936 25.0781H42.7996C45.0856 25.0781 46.9432 27.3534 46.9432 30.1506V49.2989C46.9432 52.0997 45.0856 54.375 42.7996 54.375ZM16.3936 27.6702C15.2776 27.6702 14.3668 28.7826 14.3668 30.1506V49.2989C14.3668 50.6669 15.2776 51.7794 16.3936 51.7794H42.7996C43.9156 51.7794 44.8228 50.6669 44.8228 49.2989V30.1506C44.8228 28.7826 43.9156 27.6702 42.7996 27.6702H16.3936Z" fill="#00C650"/>
<path d="M45.885 42.8438H13.3086V45.4394H45.885V42.8438Z" fill="#00C650"/>
<path d="M45.885 33.9453H13.3086V36.5409H45.885V33.9453Z" fill="#00C650"/>
<path d="M37.5448 26.375H34.9492V53.0762H37.5448V26.375Z" fill="#00C650"/>
<path d="M24.246 26.375H21.6504V53.0762H24.246V26.375Z" fill="#00C650"/>
</svg>
