<svg width="12" height="13" viewBox="0 0 12 13" fill="none" xmlns="http://www.w3.org/2000/svg">
<g clip-path="url(#clip0_9208_31033)">
<mask id="path-1-inside-1_9208_31033" fill="white">
<path d="M10.3271 9.03406L8.31 8.28106C7.94025 8.14306 7.611 7.72268 7.524 7.31543C8.18925 6.74506 8.625 5.81506 8.625 4.76318C8.625 3.03143 7.4475 1.62256 6 1.62256C4.5525 1.62256 3.375 3.03143 3.375 4.76318C3.375 5.96506 3.94275 7.01056 4.77413 7.53818C4.63538 7.85731 4.36463 8.14531 4.06425 8.24806L1.69275 9.05956C0.953625 9.31306 0.375 10.0391 0.375 10.8202C0.375 11.6471 1.04775 12.2362 1.875 12.2362H10.125C10.9523 12.2362 11.625 11.6471 11.625 10.8202C11.625 10.0432 11.055 9.30593 10.3271 9.03406ZM4.125 4.76318C4.125 3.44506 4.96613 2.37256 6 2.37256C7.03387 2.37256 7.875 3.44506 7.875 4.76318C7.875 6.08131 7.03387 7.15381 6 7.15381C4.96613 7.15381 4.125 6.08131 4.125 4.76318ZM5.45963 7.83631C5.634 7.88018 5.81475 7.90381 6 7.90381C6.3045 7.90381 6.59588 7.83818 6.86812 7.72381C7.0575 8.25593 7.46925 8.72993 7.971 8.94781C7.41563 9.23281 6.73687 9.40418 6.00037 9.40418C5.31825 9.40418 4.68488 9.25831 4.15387 9.01081L4.30763 8.95831C4.81463 8.78431 5.23987 8.34593 5.45963 7.83631ZM10.125 11.4862H1.875C1.46137 11.4862 1.125 11.2338 1.125 10.8202C1.125 10.3638 1.50375 9.87556 1.93575 9.72743L3.22388 9.30743C3.95738 9.81818 4.92975 10.1433 6 10.1433C7.10362 10.1433 8.106 9.81593 8.84662 9.27668L10.065 9.73418C10.4966 9.89543 10.875 10.3582 10.875 10.8187C10.875 11.2323 10.5386 11.4862 10.125 11.4862Z"/>
</mask>
<path d="M10.3271 9.03406L8.31 8.28106C7.94025 8.14306 7.611 7.72268 7.524 7.31543C8.18925 6.74506 8.625 5.81506 8.625 4.76318C8.625 3.03143 7.4475 1.62256 6 1.62256C4.5525 1.62256 3.375 3.03143 3.375 4.76318C3.375 5.96506 3.94275 7.01056 4.77413 7.53818C4.63538 7.85731 4.36463 8.14531 4.06425 8.24806L1.69275 9.05956C0.953625 9.31306 0.375 10.0391 0.375 10.8202C0.375 11.6471 1.04775 12.2362 1.875 12.2362H10.125C10.9523 12.2362 11.625 11.6471 11.625 10.8202C11.625 10.0432 11.055 9.30593 10.3271 9.03406ZM4.125 4.76318C4.125 3.44506 4.96613 2.37256 6 2.37256C7.03387 2.37256 7.875 3.44506 7.875 4.76318C7.875 6.08131 7.03387 7.15381 6 7.15381C4.96613 7.15381 4.125 6.08131 4.125 4.76318ZM5.45963 7.83631C5.634 7.88018 5.81475 7.90381 6 7.90381C6.3045 7.90381 6.59588 7.83818 6.86812 7.72381C7.0575 8.25593 7.46925 8.72993 7.971 8.94781C7.41563 9.23281 6.73687 9.40418 6.00037 9.40418C5.31825 9.40418 4.68488 9.25831 4.15387 9.01081L4.30763 8.95831C4.81463 8.78431 5.23987 8.34593 5.45963 7.83631ZM10.125 11.4862H1.875C1.46137 11.4862 1.125 11.2338 1.125 10.8202C1.125 10.3638 1.50375 9.87556 1.93575 9.72743L3.22388 9.30743C3.95738 9.81818 4.92975 10.1433 6 10.1433C7.10362 10.1433 8.106 9.81593 8.84662 9.27668L10.065 9.73418C10.4966 9.89543 10.875 10.3582 10.875 10.8187C10.875 11.2323 10.5386 11.4862 10.125 11.4862Z" fill="#CCDDDA"/>
<path d="M10.3271 9.03406L10.8615 7.60336L10.8612 7.60325L10.3271 9.03406ZM8.31 8.28106L8.84412 6.85025L8.84403 6.85022L8.31 8.28106ZM7.524 7.31543L6.52992 6.156L5.84082 6.74682L6.03045 7.6345L7.524 7.31543ZM4.77413 7.53818L6.17472 8.14714L6.69571 6.94885L5.59249 6.2487L4.77413 7.53818ZM4.06425 8.24806L3.56994 6.80302L3.56979 6.80307L4.06425 8.24806ZM1.69275 9.05956L1.19829 7.61457L1.19728 7.61491L1.69275 9.05956ZM5.45963 7.83631L5.83228 6.35522L4.57184 6.03808L4.0572 7.23158L5.45963 7.83631ZM6.86812 7.72381L8.30697 7.21174L7.7655 5.69026L6.27659 6.31577L6.86812 7.72381ZM7.971 8.94781L8.66828 10.3066L11.5404 8.83272L8.5793 7.54693L7.971 8.94781ZM4.15387 9.01081L3.66036 7.5655L0.0689562 8.79182L3.50867 10.3951L4.15387 9.01081ZM4.30763 8.95831L4.80114 10.4036L4.80339 10.4029L4.30763 8.95831ZM1.93575 9.72743L1.46231 8.27542L1.45133 8.279L1.44039 8.28275L1.93575 9.72743ZM3.22388 9.30743L4.0966 8.0541L3.47295 7.61984L2.75044 7.85542L3.22388 9.30743ZM8.84662 9.27668L9.3835 7.84691L8.61301 7.55759L7.94767 8.04203L8.84662 9.27668ZM10.065 9.73418L9.52812 11.164L9.53052 11.1649L10.065 9.73418ZM10.3271 9.03406L10.8612 7.60325L8.84412 6.85025L8.31 8.28106L7.77588 9.71186L9.793 10.4649L10.3271 9.03406ZM8.31 8.28106L8.84403 6.85022C8.91753 6.87765 8.96079 6.90799 8.97815 6.92142C8.98791 6.92898 8.99389 6.93459 8.99683 6.9375C8.99839 6.93905 8.99942 6.94015 9 6.9408C9.00058 6.94145 9.00084 6.94177 9.00084 6.94178C9.00085 6.94178 9.00071 6.94161 9.00048 6.94129C9.00025 6.94097 9.00003 6.94064 8.99984 6.94034C8.99936 6.9396 8.99961 6.93988 9.00051 6.94169C9.00137 6.94343 9.00991 6.96063 9.01755 6.99637L7.524 7.31543L6.03045 7.6345C6.13031 8.10196 6.35259 8.52297 6.62109 8.85665C6.8857 9.18549 7.27186 9.52375 7.77597 9.7119L8.31 8.28106ZM7.524 7.31543L8.51808 8.47487C9.54753 7.59224 10.1522 6.22571 10.1522 4.76318H8.625H7.09775C7.09775 5.40441 6.83097 5.89788 6.52992 6.156L7.524 7.31543ZM8.625 4.76318H10.1522C10.1522 2.45595 8.53607 0.0953101 6 0.0953101V1.62256V3.14981C6.35893 3.14981 7.09775 3.60691 7.09775 4.76318H8.625ZM6 1.62256V0.0953101C3.46393 0.0953101 1.84775 2.45595 1.84775 4.76318H3.375H4.90225C4.90225 3.60691 5.64107 3.14981 6 3.14981V1.62256ZM3.375 4.76318H1.84775C1.84775 6.4231 2.63089 7.98685 3.95576 8.82767L4.77413 7.53818L5.59249 6.2487C5.25461 6.03427 4.90225 5.50702 4.90225 4.76318H3.375ZM4.77413 7.53818L3.37353 6.92923C3.37896 6.91675 3.38224 6.91219 3.3905 6.90379C3.39638 6.8978 3.41065 6.88426 3.43637 6.86715C3.46184 6.85021 3.50584 6.82494 3.56994 6.80302L4.06425 8.24806L4.55856 9.6931C5.3625 9.41809 5.91067 8.75445 6.17472 8.14714L4.77413 7.53818ZM4.06425 8.24806L3.56979 6.80307L1.19829 7.61457L1.69275 9.05956L2.18721 10.5045L4.55871 9.69305L4.06425 8.24806ZM1.69275 9.05956L1.19728 7.61491C-0.0832788 8.05411 -1.15225 9.30986 -1.15225 10.8202H0.375H1.90225C1.90225 10.8087 1.90828 10.7505 1.9711 10.6681C2.03491 10.5845 2.11932 10.5278 2.18822 10.5042L1.69275 9.05956ZM0.375 10.8202H-1.15225C-1.15225 12.6037 0.32204 13.7634 1.875 13.7634V12.2362V10.7089C1.82397 10.7089 1.82479 10.6921 1.85055 10.7159C1.86338 10.7278 1.87828 10.7466 1.88936 10.7716C1.90092 10.7977 1.90225 10.8168 1.90225 10.8202H0.375ZM1.875 12.2362V13.7634H10.125V12.2362V10.7089H1.875V12.2362ZM10.125 12.2362V13.7634C11.678 13.7634 13.1522 12.6037 13.1522 10.8202H11.625H10.0978C10.0978 10.8168 10.0991 10.7977 10.1106 10.7716C10.1217 10.7466 10.1366 10.7278 10.1495 10.7159C10.1752 10.6921 10.176 10.7089 10.125 10.7089V12.2362ZM11.625 10.8202H13.1522C13.1522 9.33178 12.114 8.07116 10.8615 7.60336L10.3271 9.03406L9.79273 10.4648C9.86285 10.491 9.95249 10.5531 10.0215 10.6464C10.0899 10.7387 10.0978 10.8052 10.0978 10.8202H11.625ZM4.125 4.76318H5.65225C5.65225 4.42019 5.76323 4.16055 5.87653 4.01609C5.98844 3.8734 6.04411 3.89981 6 3.89981V2.37256V0.84531C3.79784 0.84531 2.59775 2.96802 2.59775 4.76318H4.125ZM6 2.37256V3.89981C5.95589 3.89981 6.01156 3.8734 6.12347 4.01609C6.23677 4.16055 6.34775 4.42019 6.34775 4.76318H7.875H9.40225C9.40225 2.96802 8.20216 0.84531 6 0.84531V2.37256ZM7.875 4.76318H6.34775C6.34775 5.10618 6.23677 5.36582 6.12347 5.51028C6.01156 5.65297 5.95589 5.62656 6 5.62656V7.15381V8.68106C8.20216 8.68106 9.40225 6.55835 9.40225 4.76318H7.875ZM6 7.15381V5.62656C6.04411 5.62656 5.98844 5.65297 5.87653 5.51028C5.76323 5.36582 5.65225 5.10618 5.65225 4.76318H4.125H2.59775C2.59775 6.55835 3.79784 8.68106 6 8.68106V7.15381ZM5.45963 7.83631L5.08697 9.31739C5.37826 9.39069 5.68412 9.43106 6 9.43106V7.90381V6.37656C5.94538 6.37656 5.88974 6.36968 5.83228 6.35522L5.45963 7.83631ZM6 7.90381V9.43106C6.52768 9.43106 7.01953 9.31675 7.45966 9.13185L6.86812 7.72381L6.27659 6.31577C6.17222 6.35961 6.08132 6.37656 6 6.37656V7.90381ZM6.86812 7.72381L5.42928 8.23587C5.74279 9.11681 6.4271 9.94242 7.3627 10.3487L7.971 8.94781L8.5793 7.54693C8.5114 7.51745 8.37221 7.39505 8.30697 7.21174L6.86812 7.72381ZM7.971 8.94781L7.27372 7.58903C6.94225 7.75913 6.50369 7.87694 6.00037 7.87694V9.40418V10.9314C6.97006 10.9314 7.889 10.7065 8.66828 10.3066L7.971 8.94781ZM6.00037 9.40418V7.87694C5.53283 7.87694 5.1206 7.7764 4.79908 7.62654L4.15387 9.01081L3.50867 10.3951C4.24915 10.7402 5.10366 10.9314 6.00037 10.9314V9.40418ZM4.15387 9.01081L4.64739 10.4561L4.80114 10.4036L4.30763 8.95831L3.81411 7.513L3.66036 7.5655L4.15387 9.01081ZM4.30763 8.95831L4.80339 10.4029C5.78409 10.0663 6.50196 9.27613 6.86205 8.44103L5.45963 7.83631L4.0572 7.23158C3.97779 7.41574 3.84516 7.50234 3.81186 7.51376L4.30763 8.95831ZM10.125 11.4862V9.95893H1.875V11.4862V13.0134H10.125V11.4862ZM1.875 11.4862V9.95893C1.96867 9.95893 2.14806 9.98742 2.33086 10.142C2.53792 10.317 2.65225 10.577 2.65225 10.8202H1.125H-0.402249C-0.402249 11.477 -0.119732 12.07 0.358918 12.4746C0.813318 12.8588 1.36771 13.0134 1.875 13.0134V11.4862ZM1.125 10.8202H2.65225C2.65225 10.9158 2.63296 10.9821 2.62027 11.0158C2.6074 11.05 2.59485 11.0684 2.58878 11.0764C2.58258 11.0847 2.57314 11.0954 2.55554 11.1089C2.53876 11.1218 2.49916 11.1488 2.43111 11.1721L1.93575 9.72743L1.44039 8.28275C0.886047 8.47283 0.446089 8.84377 0.147967 9.24001C-0.148763 9.63441 -0.402249 10.1848 -0.402249 10.8202H1.125ZM1.93575 9.72743L2.40919 11.1794L3.69731 10.7594L3.22388 9.30743L2.75044 7.85542L1.46231 8.27542L1.93575 9.72743ZM3.22388 9.30743L2.35115 10.5608C3.34731 11.2544 4.62579 11.6706 6 11.6706V10.1433V8.61606C5.23371 8.61606 4.56744 8.38196 4.0966 8.0541L3.22388 9.30743ZM6 10.1433V11.6706C7.39634 11.6706 8.72029 11.2579 9.74558 10.5113L8.84662 9.27668L7.94767 8.04203C7.49171 8.37401 6.81091 8.61606 6 8.61606V10.1433ZM8.84662 9.27668L8.30975 10.7065L9.52812 11.164L10.065 9.73418L10.6019 8.30441L9.3835 7.84691L8.84662 9.27668ZM10.065 9.73418L9.53052 11.1649C9.48487 11.1478 9.45918 11.1302 9.44822 11.1218C9.43679 11.1131 9.42849 11.1047 9.42064 11.0945C9.41299 11.0845 9.39744 11.062 9.3822 11.022C9.36683 10.9817 9.34775 10.9126 9.34775 10.8187H10.875H12.4022C12.4022 10.1768 12.1455 9.62767 11.8431 9.23393C11.5391 8.83821 11.1109 8.49457 10.5995 8.30351L10.065 9.73418ZM10.875 10.8187H9.34775C9.34775 10.576 9.46158 10.3172 9.66726 10.1428C9.84937 9.98834 10.0291 9.95893 10.125 9.95893V11.4862V13.0134C10.6345 13.0134 11.1893 12.8571 11.643 12.4723C12.1202 12.0675 12.4022 11.475 12.4022 10.8187H10.875Z" fill="#CCDDDA" mask="url(#path-1-inside-1_9208_31033)"/>
</g>
<defs>
<clipPath id="clip0_9208_31033">
<rect width="12" height="12" fill="white" transform="translate(0 0.986328)"/>
</clipPath>
</defs>
</svg>
