<svg width="16" height="16" viewBox="0 0 16 16" fill="none" xmlns="http://www.w3.org/2000/svg">
<g clip-path="url(#clip0_9006_129829)">
<path d="M6.05967 6.0026C6.21641 5.55705 6.52578 5.18134 6.93298 4.94203C7.34018 4.70271 7.81894 4.61523 8.28446 4.69508C8.74998 4.77493 9.17222 5.01695 9.47639 5.37829C9.78057 5.73963 9.94705 6.19695 9.94634 6.66927C9.94634 8.0026 7.94634 8.66927 7.94634 8.66927M7.99967 11.3359H8.00634M14.6663 8.0026C14.6663 11.6845 11.6816 14.6693 7.99967 14.6693C4.31778 14.6693 1.33301 11.6845 1.33301 8.0026C1.33301 4.32071 4.31778 1.33594 7.99967 1.33594C11.6816 1.33594 14.6663 4.32071 14.6663 8.0026Z" stroke="#98A2B3" stroke-width="1.33333" stroke-linecap="round" stroke-linejoin="round"/>
</g>
<defs>
<clipPath id="clip0_9006_129829">
<rect width="16" height="16" fill="white"/>
</clipPath>
</defs>
</svg>
