<svg width="12" height="13" viewBox="0 0 12 13" fill="none" xmlns="http://www.w3.org/2000/svg">
<path d="M5.525 8.06094L4.6 8.98594C4.405 9.18094 4.095 9.18094 3.895 8.99094C3.84 8.93594 3.785 8.88594 3.73 8.83094C3.215 8.31094 2.75 7.76594 2.335 7.19594C1.925 6.62594 1.595 6.05594 1.355 5.49094C1.12 4.92094 1 4.37594 1 3.85594C1 3.51594 1.06 3.19094 1.18 2.89094C1.3 2.58594 1.49 2.30594 1.755 2.05594C2.075 1.74094 2.425 1.58594 2.795 1.58594C2.935 1.58594 3.075 1.61594 3.2 1.67594C3.33 1.73594 3.445 1.82594 3.535 1.95594L4.695 3.59094C4.785 3.71594 4.85 3.83094 4.895 3.94094C4.94 4.04594 4.965 4.15094 4.965 4.24594C4.965 4.36594 4.93 4.48594 4.86 4.60094C4.795 4.71594 4.7 4.83594 4.58 4.95594L4.2 5.35094C4.145 5.40594 4.12 5.47094 4.12 5.55094C4.12 5.59094 4.125 5.62594 4.135 5.66594C4.15 5.70594 4.165 5.73594 4.175 5.76594C4.265 5.93094 4.42 6.14594 4.64 6.40594C4.865 6.66594 5.105 6.93094 5.365 7.19594C5.415 7.24594 5.47 7.29594 5.52 7.34594C5.72 7.54094 5.725 7.86094 5.525 8.06094Z" fill="#C5C5C5"/>
<path d="M10.9848 9.74656C10.9848 9.88656 10.9598 10.0316 10.9098 10.1716C10.8948 10.2116 10.8798 10.2516 10.8598 10.2916C10.7748 10.4716 10.6648 10.6416 10.5198 10.8016C10.2748 11.0716 10.0048 11.2666 9.6998 11.3916C9.6948 11.3916 9.6898 11.3966 9.6848 11.3966C9.3898 11.5166 9.0698 11.5816 8.7248 11.5816C8.2148 11.5816 7.6698 11.4616 7.0948 11.2166C6.5198 10.9716 5.9448 10.6416 5.3748 10.2266C5.1798 10.0816 4.9848 9.93656 4.7998 9.78156L6.4348 8.14656C6.5748 8.25156 6.6998 8.33156 6.8048 8.38656C6.8298 8.39656 6.8598 8.41156 6.8948 8.42656C6.9348 8.44156 6.9748 8.44656 7.0198 8.44656C7.1048 8.44656 7.1698 8.41656 7.2248 8.36156L7.6048 7.98656C7.7298 7.86156 7.8498 7.76656 7.9648 7.70656C8.0798 7.63656 8.1948 7.60156 8.3198 7.60156C8.4148 7.60156 8.5148 7.62156 8.6248 7.66656C8.7348 7.71156 8.8498 7.77656 8.9748 7.86156L10.6298 9.03656C10.7598 9.12656 10.8498 9.23156 10.9048 9.35656C10.9548 9.48156 10.9848 9.60656 10.9848 9.74656Z" fill="#C5C5C5"/>
</svg>
