<svg width="10" height="11" viewBox="0 0 10 11" fill="none" xmlns="http://www.w3.org/2000/svg">
<path d="M7.06957 1.06547L2.55457 2.56547C-0.48043 3.58047 -0.48043 5.23547 2.55457 6.24547L3.89457 6.69047L4.33957 8.03047C5.34957 11.0655 7.00957 11.0655 8.01957 8.03047L9.52457 3.52047C10.1946 1.49547 9.09457 0.390471 7.06957 1.06547ZM7.22957 3.75547L5.32957 5.66547C5.25457 5.74047 5.15957 5.77547 5.06457 5.77547C4.96957 5.77547 4.87457 5.74047 4.79957 5.66547C4.65457 5.52047 4.65457 5.28047 4.79957 5.13547L6.69957 3.22547C6.84457 3.08047 7.08457 3.08047 7.22957 3.22547C7.37457 3.37047 7.37457 3.61047 7.22957 3.75547Z" fill="#C5C5C5"/>
</svg>
