<svg width="13" height="13" viewBox="0 0 13 13" fill="none" xmlns="http://www.w3.org/2000/svg">
<path d="M8.50098 6.53594V8.63594C8.50098 10.3859 7.80098 11.0859 6.05098 11.0859H3.95098C2.20098 11.0859 1.50098 10.3859 1.50098 8.63594V6.53594C1.50098 4.78594 2.20098 4.08594 3.95098 4.08594H6.05098C7.80098 4.08594 8.50098 4.78594 8.50098 6.53594Z" stroke="#292D32" stroke-linecap="round" stroke-linejoin="round"/>
<path d="M11.501 3.53594V5.63594C11.501 7.38594 10.801 8.08594 9.05098 8.08594H8.50098V6.53594C8.50098 4.78594 7.80098 4.08594 6.05098 4.08594H4.50098V3.53594C4.50098 1.78594 5.20098 1.08594 6.95098 1.08594H9.05098C10.801 1.08594 11.501 1.78594 11.501 3.53594Z" stroke="#292D32" stroke-linecap="round" stroke-linejoin="round"/>
</svg>
