<svg width="15" height="15" viewBox="0 0 15 15" fill="none" xmlns="http://www.w3.org/2000/svg">
<path d="M2.25977 3.07891C2.25977 1.42593 3.59976 0.0859375 5.25273 0.0859375H9.25977L13.4598 4.28594V11.093C13.4598 12.7459 12.1198 14.0859 10.4668 14.0859H5.25273C3.59976 14.0859 2.25977 12.7459 2.25977 11.093V3.07891Z" fill="#D92D20"/>
<path opacity="0.3" d="M9.25977 0.0859375L13.4598 4.28594H12.2527C10.5998 4.28594 9.25977 2.94594 9.25977 1.29297V0.0859375Z" fill="white"/>
<path d="M4.19269 12.1328V9.22372H5.34041C5.56106 9.22372 5.74903 9.26586 5.90433 9.35014C6.05964 9.43348 6.17801 9.54948 6.25945 9.69815C6.34183 9.84588 6.38303 10.0163 6.38303 10.2095C6.38303 10.4027 6.34136 10.5732 6.25803 10.7209C6.17469 10.8686 6.05395 10.9837 5.89581 11.0661C5.73861 11.1484 5.54827 11.1896 5.32479 11.1896H4.59325V10.6967H5.22536C5.34373 10.6967 5.44127 10.6764 5.51797 10.6357C5.59562 10.594 5.65339 10.5367 5.69127 10.4638C5.73009 10.3899 5.7495 10.3052 5.7495 10.2095C5.7495 10.1129 5.73009 10.0286 5.69127 9.95668C5.65339 9.88376 5.59562 9.82741 5.51797 9.78764C5.44032 9.74692 5.34183 9.72656 5.22252 9.72656H4.80774V12.1328H4.19269ZM7.81378 12.1328H6.78253V9.22372H7.8223C8.11492 9.22372 8.36681 9.28196 8.57798 9.39844C8.78916 9.51397 8.95156 9.68016 9.0652 9.89702C9.17978 10.1139 9.23707 10.3733 9.23707 10.6754C9.23707 10.9785 9.17978 11.2389 9.0652 11.4567C8.95156 11.6745 8.78821 11.8416 8.57514 11.9581C8.36302 12.0746 8.10923 12.1328 7.81378 12.1328ZM7.39759 11.6058H7.78821C7.97003 11.6058 8.12296 11.5736 8.24702 11.5092C8.37202 11.4439 8.46577 11.343 8.52827 11.2067C8.59171 11.0694 8.62344 10.8923 8.62344 10.6754C8.62344 10.4605 8.59171 10.2848 8.52827 10.1484C8.46577 10.0121 8.37249 9.9117 8.24844 9.8473C8.12438 9.78291 7.97145 9.75071 7.78963 9.75071H7.39759V11.6058ZM9.69269 12.1328V9.22372H11.6188V9.73082H10.3077V10.424H11.491V10.9311H10.3077V12.1328H9.69269Z" fill="white"/>
</svg>
