<svg width="72" height="87" viewBox="0 0 72 87" fill="none" xmlns="http://www.w3.org/2000/svg">
<g opacity="0.3">
<path opacity="0.3" d="M50.2813 17.7506C48.3128 17.7496 46.4252 16.9672 45.0333 15.5752C43.6414 14.1833 42.859 12.2956 42.858 10.3271V0.0234375H9.68766C8.41516 0.0234374 7.15514 0.274129 5.97955 0.761222C4.80396 1.24831 3.73577 1.96225 2.83614 2.86225C1.93652 3.76224 1.22307 4.83067 0.736436 6.00649C0.2498 7.18231 -0.000472202 8.44251 6.68839e-07 9.71506V68.1131C-0.000472202 69.3856 0.2498 70.6458 0.736436 71.8216C1.22307 72.9974 1.93652 74.0658 2.83614 74.9658C3.73577 75.8658 4.80396 76.5798 5.97955 77.0669C7.15514 77.554 8.41516 77.8047 9.68766 77.8047H49.5036C50.7761 77.8047 52.0361 77.554 53.2117 77.0669C54.3873 76.5798 55.4554 75.8658 56.355 74.9658C57.2547 74.0658 57.9682 72.9974 58.4548 71.8216C58.9415 70.6458 59.1917 69.3856 59.1913 68.1131V17.7542L50.2813 17.7506Z" fill="#00C650"/>
</g>
<path d="M59.1907 17.7506H50.2807C48.3122 17.7496 46.4246 16.9672 45.0327 15.5752C43.6408 14.1833 42.8584 12.2956 42.8574 10.3271V0.0234375L59.1907 17.7506Z" fill="#00C650"/>
<path d="M66.2179 61.4453H21.2035C18.0104 61.4453 15.4219 64.034 15.4219 67.2272V80.6485C15.4219 83.8417 18.0104 86.4304 21.2035 86.4304H66.2179C69.411 86.4304 71.9994 83.8417 71.9994 80.6485V67.2272C71.9994 64.034 69.411 61.4453 66.2179 61.4453Z" fill="#00C650"/>
<path d="M30.3197 76.8438V79.4643H27.6094V76.8438H30.3197Z" fill="white"/>
<path d="M38.3639 68.6328V76.0266C38.3639 77.1617 38.0555 78.034 37.4388 78.6436C37.0945 78.961 36.6899 79.2059 36.249 79.3636C35.8081 79.5213 35.3399 79.5886 34.8724 79.5615C34.3603 79.5889 33.8479 79.5147 33.3648 79.3429C32.8816 79.1711 32.4373 78.9053 32.0575 78.5608C31.364 77.8912 31.0161 76.9313 31.0137 75.681H33.6017C33.6017 76.6925 33.9868 77.1965 34.7499 77.1965C35.4159 77.1965 35.747 76.8077 35.747 76.0338V68.64L38.3639 68.6328Z" fill="white"/>
<path d="M42.7067 75.6594V79.4571H40.0898V68.6328H44.3301C45.6139 68.6328 46.593 68.9508 47.2673 69.5867C47.6086 69.9211 47.8751 70.324 48.0494 70.7689C48.2238 71.2138 48.302 71.6905 48.2788 72.1677C48.2886 72.7967 48.1335 73.4172 47.8288 73.9676C47.5154 74.5042 47.0493 74.9353 46.4898 75.2058C45.8159 75.5257 45.0758 75.6812 44.3301 75.6594H42.7067ZM45.6151 72.1677C45.6151 71.2078 45.0896 70.7279 44.0385 70.7279H42.7067V73.5464H44.0385C45.0896 73.556 45.6151 73.0964 45.6151 72.1677Z" fill="white"/>
<path d="M57.9889 69.5101C58.8604 70.1655 59.4467 71.1307 59.6267 72.2062H56.8551C56.6675 71.8295 56.3716 71.5174 56.0055 71.3099C55.5933 71.065 55.1207 70.9403 54.6413 70.95C54.2691 70.9348 53.8982 71.0017 53.5548 71.1461C53.2114 71.2904 52.904 71.5086 52.6543 71.7851C52.1264 72.4148 51.8576 73.2215 51.9021 74.0421C51.9021 75.0716 52.1648 75.8623 52.6904 76.4143C52.9859 76.7009 53.338 76.9225 53.7242 77.0651C54.1104 77.2077 54.522 77.268 54.9329 77.2422C55.5202 77.2529 56.0951 77.0722 56.5707 76.7275C57.0563 76.3648 57.4072 75.8505 57.5678 75.266H54.2597V73.3833H59.7562V75.9715C59.5462 76.6158 59.2138 77.2135 58.7772 77.7317C58.3043 78.2902 57.7161 78.7397 57.053 79.0492C56.3033 79.3956 55.485 79.5679 54.6593 79.5532C53.655 79.5796 52.6615 79.3399 51.7797 78.8584C50.973 78.4047 50.3162 77.7254 49.8899 76.9038C49.4319 76.0143 49.203 75.0245 49.224 74.0241C49.206 73.0298 49.4348 72.0465 49.8899 71.1623C50.3155 70.3426 50.9693 69.6637 51.7725 69.2077C52.6415 68.73 53.6211 68.4904 54.6125 68.513C55.8175 68.4604 57.0057 68.8113 57.9889 69.5101Z" fill="white"/>
<path d="M37.5482 52.7315H21.647C20.0904 52.7296 18.598 52.1103 17.4973 51.0096C16.3965 49.9088 15.7773 48.4164 15.7754 46.8596V30.9578C15.7773 29.4011 16.3965 27.9086 17.4973 26.8079C18.598 25.7071 20.0904 25.0878 21.647 25.0859H37.5482C39.1045 25.0878 40.5965 25.7072 41.6966 26.8081C42.7968 27.909 43.4152 29.4014 43.4162 30.9578V46.8596C43.4152 48.416 42.7968 49.9085 41.6966 51.0093C40.5965 52.1102 39.1045 52.7296 37.5482 52.7315ZM21.647 27.6816C20.7785 27.6826 19.9457 28.0281 19.3315 28.6423C18.7174 29.2565 18.3719 30.0892 18.371 30.9578V46.8596C18.3719 47.7282 18.7174 48.561 19.3315 49.1752C19.9457 49.7894 20.7785 50.1348 21.647 50.1358H37.5482C38.4164 50.1348 39.2488 49.7892 39.8623 49.1749C40.4759 48.5607 40.8206 47.7279 40.8206 46.8596V30.9578C40.8206 30.0895 40.4759 29.2568 39.8623 28.6425C39.2488 28.0282 38.4164 27.6826 37.5482 27.6816H21.647Z" fill="#00C650"/>
<path d="M42.1194 43.8362V46.8603C42.1184 48.0727 41.6364 49.235 40.7792 50.0923C39.922 50.9495 38.7596 51.4316 37.5474 51.4325H21.6462C20.4336 51.4325 19.2707 50.9508 18.4133 50.0933C17.5559 49.2359 17.0742 48.073 17.0742 46.8603V41.7841C19.6194 41.2369 23.4966 41.0641 28.2018 42.9434L31.1178 40.1641L33.1049 45.2043C33.1049 45.2043 33.6377 43.3502 35.3585 43.613C37.0793 43.8758 39.8658 44.8082 41.0574 44.0126C41.3784 43.8274 41.7557 43.7647 42.1194 43.8362Z" fill="#00C650"/>
<path d="M36.5505 34.2067C37.5266 34.2067 38.318 33.4155 38.318 32.4393C38.318 31.4632 37.5266 30.6719 36.5505 30.6719C35.5745 30.6719 34.7832 31.4632 34.7832 32.4393C34.7832 33.4155 35.5745 34.2067 36.5505 34.2067Z" fill="#00C650"/>
</svg>
