<svg width="12" height="13" viewBox="0 0 12 13" fill="none" xmlns="http://www.w3.org/2000/svg">
<path d="M4.25 10.4863H4C2 10.4863 1 9.98633 1 7.48633V4.98633C1 2.98633 2 1.98633 4 1.98633H8C10 1.98633 11 2.98633 11 4.98633V7.48633C11 9.48633 10 10.4863 8 10.4863H7.75C7.595 10.4863 7.445 10.5613 7.35 10.6863L6.6 11.6863C6.27 12.1263 5.73 12.1263 5.4 11.6863L4.65 10.6863C4.57 10.5763 4.385 10.4863 4.25 10.4863Z" stroke="#CCDDDA" stroke-miterlimit="10" stroke-linecap="round" stroke-linejoin="round"/>
<path d="M3.5 4.98633H8.5" stroke="#CCDDDA" stroke-linecap="round" stroke-linejoin="round"/>
<path d="M3.5 7.48633H6.5" stroke="white" stroke-linecap="round" stroke-linejoin="round"/>
</svg>
