<svg width="13" height="13" viewBox="0 0 13 13" fill="none" xmlns="http://www.w3.org/2000/svg">
<path d="M9.2091 1.86594V1.08594C9.2091 0.880938 9.0391 0.710938 8.8341 0.710938C8.6291 0.710938 8.4591 0.880938 8.4591 1.08594V1.83594H5.2091V1.08594C5.2091 0.880938 5.0391 0.710938 4.8341 0.710938C4.6291 0.710938 4.4591 0.880938 4.4591 1.08594V1.86594C3.1091 1.99094 2.4541 2.79594 2.3541 3.99094C2.3441 4.13594 2.4641 4.25594 2.6041 4.25594H11.0641C11.2091 4.25594 11.3291 4.13094 11.3141 3.99094C11.2141 2.79594 10.5591 1.99094 9.2091 1.86594Z" fill="#73A8A1"/>
<path d="M10.834 5.00586H2.83398C2.55898 5.00586 2.33398 5.23086 2.33398 5.50586V8.58586C2.33398 10.0859 3.08398 11.0859 4.83398 11.0859H8.83398C10.584 11.0859 11.334 10.0859 11.334 8.58586V5.50586C11.334 5.23086 11.109 5.00586 10.834 5.00586ZM5.43898 9.19086C5.38898 9.23586 5.33398 9.27086 5.27398 9.29586C5.21398 9.32086 5.14898 9.33586 5.08398 9.33586C5.01898 9.33586 4.95398 9.32086 4.89398 9.29586C4.83398 9.27086 4.77898 9.23586 4.72898 9.19086C4.63898 9.09586 4.58398 8.96586 4.58398 8.83586C4.58398 8.70586 4.63898 8.57586 4.72898 8.48086C4.77898 8.43586 4.83398 8.40086 4.89398 8.37586C5.01398 8.32586 5.15398 8.32586 5.27398 8.37586C5.33398 8.40086 5.38898 8.43586 5.43898 8.48086C5.52898 8.57586 5.58398 8.70586 5.58398 8.83586C5.58398 8.96586 5.52898 9.09586 5.43898 9.19086ZM5.54398 7.27586C5.51898 7.33586 5.48398 7.39086 5.43898 7.44086C5.38898 7.48586 5.33398 7.52086 5.27398 7.54586C5.21398 7.57086 5.14898 7.58586 5.08398 7.58586C5.01898 7.58586 4.95398 7.57086 4.89398 7.54586C4.83398 7.52086 4.77898 7.48586 4.72898 7.44086C4.68398 7.39086 4.64898 7.33586 4.62398 7.27586C4.59898 7.21586 4.58398 7.15086 4.58398 7.08586C4.58398 7.02086 4.59898 6.95586 4.62398 6.89586C4.64898 6.83586 4.68398 6.78086 4.72898 6.73086C4.77898 6.68586 4.83398 6.65086 4.89398 6.62586C5.01398 6.57586 5.15398 6.57586 5.27398 6.62586C5.33398 6.65086 5.38898 6.68586 5.43898 6.73086C5.48398 6.78086 5.51898 6.83586 5.54398 6.89586C5.56898 6.95586 5.58398 7.02086 5.58398 7.08586C5.58398 7.15086 5.56898 7.21586 5.54398 7.27586ZM7.18898 7.44086C7.13898 7.48586 7.08398 7.52086 7.02398 7.54586C6.96398 7.57086 6.89898 7.58586 6.83398 7.58586C6.76898 7.58586 6.70398 7.57086 6.64398 7.54586C6.58398 7.52086 6.52898 7.48586 6.47898 7.44086C6.38898 7.34586 6.33398 7.21586 6.33398 7.08586C6.33398 6.95586 6.38898 6.82586 6.47898 6.73086C6.52898 6.68586 6.58398 6.65086 6.64398 6.62586C6.76398 6.57086 6.90398 6.57086 7.02398 6.62586C7.08398 6.65086 7.13898 6.68586 7.18898 6.73086C7.27898 6.82586 7.33398 6.95586 7.33398 7.08586C7.33398 7.21586 7.27898 7.34586 7.18898 7.44086Z" fill="#73A8A1"/>
</svg>
