<svg width="9" height="10" viewBox="0 0 9 10" fill="none" xmlns="http://www.w3.org/2000/svg">
<path d="M4.125 0.921875H3.375C1.5 0.921875 0.75 1.67188 0.75 3.54688V5.79688C0.75 7.67188 1.5 8.42188 3.375 8.42188H5.625C7.5 8.42188 8.25 7.67188 8.25 5.79688V5.04688" stroke="white" stroke-linecap="round" stroke-linejoin="round"/>
<path d="M6.01422 1.30484L3.05922 4.25984C2.94672 4.37234 2.83422 4.59359 2.81172 4.75484L2.65047 5.88359C2.59047 6.29234 2.87922 6.57734 3.28797 6.52109L4.41672 6.35984C4.57422 6.33734 4.79547 6.22484 4.91172 6.11234L7.86672 3.15734C8.37672 2.64734 8.61672 2.05484 7.86672 1.30484C7.11672 0.554836 6.52422 0.794836 6.01422 1.30484Z" stroke="white" stroke-miterlimit="10" stroke-linecap="round" stroke-linejoin="round"/>
<path d="M5.5918 1.72852C5.84305 2.62477 6.5443 3.32602 7.4443 3.58102" stroke="white" stroke-miterlimit="10" stroke-linecap="round" stroke-linejoin="round"/>
</svg>
