<svg width="12" height="13" viewBox="0 0 12 13" fill="none" xmlns="http://www.w3.org/2000/svg">
<path d="M10.5 3.07617C8.835 2.91117 7.16 2.82617 5.49 2.82617C4.5 2.82617 3.51 2.87617 2.52 2.97617L1.5 3.07617" stroke="white" stroke-linecap="round" stroke-linejoin="round"/>
<path d="M4.25 2.57094L4.36 1.91594C4.44 1.44094 4.5 1.08594 5.345 1.08594H6.655C7.5 1.08594 7.565 1.46094 7.64 1.92094L7.75 2.57094" stroke="white" stroke-linecap="round" stroke-linejoin="round"/>
<path d="M9.4252 4.65625L9.1002 9.69125C9.0452 10.4762 9.0002 11.0862 7.6052 11.0862H4.3952C3.0002 11.0862 2.9552 10.4762 2.9002 9.69125L2.5752 4.65625" stroke="white" stroke-linecap="round" stroke-linejoin="round"/>
<path d="M5.16504 8.33594H6.83004" stroke="white" stroke-linecap="round" stroke-linejoin="round"/>
<path d="M4.75 6.33594H7.25" stroke="white" stroke-linecap="round" stroke-linejoin="round"/>
</svg>
