<svg width="13" height="13" viewBox="0 0 13 13" fill="none" xmlns="http://www.w3.org/2000/svg">
<path d="M9.90047 3.01094L6.93047 1.29594C6.44547 1.01594 5.84547 1.01594 5.35547 1.29594L2.39047 3.01094C1.90547 3.29094 1.60547 3.81094 1.60547 4.37594V7.79594C1.60547 8.35594 1.90547 8.87594 2.39047 9.16094L5.36047 10.8759C5.84547 11.1559 6.44547 11.1559 6.93547 10.8759L9.90547 9.16094C10.3905 8.88094 10.6905 8.36094 10.6905 7.79594V4.37594C10.6855 3.81094 10.3855 3.29594 9.90047 3.01094ZM5.77047 3.96094C5.77047 3.75594 5.94047 3.58594 6.14547 3.58594C6.35047 3.58594 6.52047 3.75594 6.52047 3.96094V6.58594C6.52047 6.79094 6.35047 6.96094 6.14547 6.96094C5.94047 6.96094 5.77047 6.79094 5.77047 6.58594V3.96094ZM6.60547 8.40094C6.58047 8.46094 6.54547 8.51594 6.50047 8.56594C6.40547 8.66094 6.28047 8.71094 6.14547 8.71094C6.08047 8.71094 6.01547 8.69594 5.95547 8.67094C5.89047 8.64594 5.84047 8.61094 5.79047 8.56594C5.74547 8.51594 5.71047 8.46094 5.68047 8.40094C5.65547 8.34094 5.64547 8.27594 5.64547 8.21094C5.64547 8.08094 5.69547 7.95094 5.79047 7.85594C5.84047 7.81094 5.89047 7.77594 5.95547 7.75094C6.14047 7.67094 6.36047 7.71594 6.50047 7.85594C6.54547 7.90594 6.58047 7.95594 6.60547 8.02094C6.63047 8.08094 6.64547 8.14594 6.64547 8.21094C6.64547 8.27594 6.63047 8.34094 6.60547 8.40094Z" fill="#AEAEAE"/>
</svg>
