<svg width="12" height="13" viewBox="0 0 12 13" fill="none" xmlns="http://www.w3.org/2000/svg">
<path d="M5.5 1.71094H4.5C2 1.71094 1 2.71094 1 5.21094V8.21094C1 10.7109 2 11.7109 4.5 11.7109H7.5C10 11.7109 11 10.7109 11 8.21094V7.21094" stroke="#292D32" stroke-linecap="round" stroke-linejoin="round"/>
<path d="M8.01994 2.22155L4.07994 6.16155C3.92994 6.31155 3.77994 6.60655 3.74994 6.82155L3.53494 8.32655C3.45494 8.87155 3.83994 9.25155 4.38494 9.17655L5.88994 8.96155C6.09994 8.93155 6.39494 8.78155 6.54994 8.63155L10.4899 4.69155C11.1699 4.01155 11.4899 3.22155 10.4899 2.22155C9.48994 1.22155 8.69994 1.54155 8.01994 2.22155Z" stroke="#292D32" stroke-linecap="round" stroke-linejoin="round"/>
<path d="M7.45508 2.78516C7.79008 3.98016 8.72508 4.91516 9.92508 5.25516" stroke="#292D32" stroke-linecap="round" stroke-linejoin="round"/>
</svg>
