<svg width="20" height="21" viewBox="0 0 20 21" fill="none" xmlns="http://www.w3.org/2000/svg">
<path d="M10 5.90967V8.68467" stroke="#3A6860" stroke-width="2" stroke-miterlimit="10" stroke-linecap="round"/>
<path d="M17.1585 13.1845C17.7669 14.2011 17.2835 15.5178 16.1585 15.8928C12.1752 17.2178 7.86685 17.2178 3.88352 15.8928C2.68352 15.4928 2.22519 14.2761 2.88352 13.1845L3.94185 11.4178C4.23352 10.9345 4.46685 10.0761 4.46685 9.51781V7.76781C4.46685 4.69281 6.95019 2.20947 10.0169 2.20947C13.0669 2.20947 15.5669 4.70947 15.5669 7.75947V9.50947C15.5669 9.65947 15.5835 9.82614 15.6085 10.0011" stroke="#3A6860" stroke-width="2" stroke-miterlimit="10" stroke-linecap="round"/>
<path d="M12.7746 16.2261C12.7746 17.7511 11.5246 19.0011 9.99961 19.0011C9.24128 19.0011 8.54128 18.6844 8.04128 18.1844C7.54128 17.6844 7.22461 16.9844 7.22461 16.2261" stroke="#3A6860" stroke-width="2" stroke-miterlimit="10"/>
</svg>
