<svg width="12" height="13" viewBox="0 0 12 13" fill="none" xmlns="http://www.w3.org/2000/svg">
<path d="M7.44531 1.81094H4.55531C4.35531 1.81094 4.19531 1.65094 4.19531 1.45094C4.19531 1.25094 4.35531 1.08594 4.55531 1.08594H7.44531C7.64531 1.08594 7.80531 1.24594 7.80531 1.44594C7.80531 1.64594 7.64531 1.81094 7.44531 1.81094Z" fill="#73A8A1"/>
<path d="M9.985 7.58594H8.515C7.88 7.58594 7.5 7.96594 7.5 8.60094V10.0709C7.5 10.7059 7.88 11.0859 8.515 11.0859H9.985C10.62 11.0859 11 10.7059 11 10.0709V8.60094C11 7.96594 10.62 7.58594 9.985 7.58594ZM9.845 9.81594L9.255 10.1559C9.135 10.2259 9.015 10.2609 8.905 10.2609C8.82 10.2609 8.745 10.2409 8.675 10.2009C8.515 10.1059 8.425 9.92094 8.425 9.67594V8.99594C8.425 8.75094 8.515 8.56594 8.675 8.47094C8.835 8.37594 9.04 8.39594 9.255 8.51594L9.845 8.85594C10.055 8.98094 10.175 9.15094 10.175 9.33594C10.175 9.52094 10.06 9.69094 9.845 9.81594Z" fill="#73A8A1"/>
<path d="M7.00004 10.0702V8.60016C7.00004 7.69516 7.61004 7.08516 8.51504 7.08516H9.98504C10.1 7.08516 10.21 7.09516 10.315 7.11516C10.325 6.99516 10.335 6.87516 10.335 6.75016C10.335 4.35516 8.39004 2.41016 6.00004 2.41016C3.61004 2.41016 1.66504 4.35516 1.66504 6.75016C1.66504 9.14016 3.61004 11.0852 6.00004 11.0852C6.42504 11.0852 6.83004 11.0152 7.22004 10.9052C7.08004 10.6702 7.00004 10.3902 7.00004 10.0702ZM6.37504 6.58516C6.37504 6.79016 6.20504 6.96016 6.00004 6.96016C5.79504 6.96016 5.62504 6.79016 5.62504 6.58516V4.08516C5.62504 3.88016 5.79504 3.71016 6.00004 3.71016C6.20504 3.71016 6.37504 3.88016 6.37504 4.08516V6.58516Z" fill="#73A8A1"/>
</svg>
