<svg width="12" height="13" viewBox="0 0 12 13" fill="none" xmlns="http://www.w3.org/2000/svg">
<path d="M11 9.35618V3.32118C11 2.72118 10.51 2.27618 9.915 2.32618H9.885C8.835 2.41618 7.24 2.95118 6.35 3.51118L6.265 3.56618C6.12 3.65618 5.88 3.65618 5.735 3.56618L5.61 3.49118C4.72 2.93618 3.13 2.40618 2.08 2.32118C1.485 2.27118 1 2.72118 1 3.31618V9.35618C1 9.83618 1.39 10.2862 1.87 10.3462L2.015 10.3662C3.1 10.5112 4.775 11.0612 5.735 11.5862L5.755 11.5962C5.89 11.6712 6.105 11.6712 6.235 11.5962C7.195 11.0662 8.875 10.5112 9.965 10.3662L10.13 10.3462C10.61 10.2862 11 9.83618 11 9.35618Z" stroke="#CCDDDA" stroke-linecap="round" stroke-linejoin="round"/>
<path d="M6 3.73145V11.2314" stroke="#CCDDDA" stroke-linecap="round" stroke-linejoin="round"/>
<path d="M3.875 5.23145H2.75" stroke="#CCDDDA" stroke-linecap="round" stroke-linejoin="round"/>
<path d="M4.25 6.73145H2.75" stroke="#CCDDDA" stroke-linecap="round"/>
</svg>
