<svg width="12" height="13" viewBox="0 0 12 13" fill="none" xmlns="http://www.w3.org/2000/svg">
<g clip-path="url(#clip0_9208_31114)">
<path d="M6.83105 5.39648H6.8291C6.83022 5.39603 6.83207 5.39519 6.83398 5.39453L6.83105 5.39648Z" fill="#CCDDDA" stroke="#CCDDDA" stroke-width="1.52725" stroke-linecap="round"/>
<mask id="path-2-inside-1_9208_31114" fill="white">
<path d="M9.6345 2.48633H7.5V2.11133H7.875C8.08238 2.11133 8.25 1.9437 8.25 1.73633C8.25 1.52895 8.08238 1.36133 7.875 1.36133H4.125C3.91762 1.36133 3.75 1.52895 3.75 1.73633C3.75 1.9437 3.91762 2.11133 4.125 2.11133H4.5V2.48633H2.3655C1.68113 2.48633 1.125 3.04245 1.125 3.72683V11.7462C1.125 12.4302 1.68113 12.9863 2.3655 12.9863H9.63488C10.3189 12.9863 10.875 12.4302 10.875 11.7458V3.72683C10.875 3.04245 10.3189 2.48633 9.6345 2.48633ZM5.25 2.11133H6.75V2.48633H5.25V2.11133ZM10.125 11.7458C10.125 12.0162 9.90487 12.2363 9.6345 12.2363H2.3655C2.09513 12.2363 1.875 12.0162 1.875 11.7458V3.72683C1.875 3.45645 2.09513 3.23633 2.3655 3.23633H9.63488C9.90488 3.23633 10.125 3.45645 10.125 3.72683V11.7458Z"/>
</mask>
<path d="M9.6345 2.48633H7.5V2.11133H7.875C8.08238 2.11133 8.25 1.9437 8.25 1.73633C8.25 1.52895 8.08238 1.36133 7.875 1.36133H4.125C3.91762 1.36133 3.75 1.52895 3.75 1.73633C3.75 1.9437 3.91762 2.11133 4.125 2.11133H4.5V2.48633H2.3655C1.68113 2.48633 1.125 3.04245 1.125 3.72683V11.7462C1.125 12.4302 1.68113 12.9863 2.3655 12.9863H9.63488C10.3189 12.9863 10.875 12.4302 10.875 11.7458V3.72683C10.875 3.04245 10.3189 2.48633 9.6345 2.48633ZM5.25 2.11133H6.75V2.48633H5.25V2.11133ZM10.125 11.7458C10.125 12.0162 9.90487 12.2363 9.6345 12.2363H2.3655C2.09513 12.2363 1.875 12.0162 1.875 11.7458V3.72683C1.875 3.45645 2.09513 3.23633 2.3655 3.23633H9.63488C9.90488 3.23633 10.125 3.45645 10.125 3.72683V11.7458Z" fill="#CCDDDA"/>
<path d="M7.5 2.48633H5.97275V4.01358H7.5V2.48633ZM7.5 2.11133V0.58408H5.97275V2.11133H7.5ZM4.5 2.11133H6.02725V0.58408H4.5V2.11133ZM4.5 2.48633V4.01358H6.02725V2.48633H4.5ZM5.25 2.11133V0.58408H3.72275V2.11133H5.25ZM6.75 2.11133H8.27725V0.58408H6.75V2.11133ZM6.75 2.48633V4.01358H8.27725V2.48633H6.75ZM5.25 2.48633H3.72275V4.01358H5.25V2.48633ZM9.6345 2.48633V0.95908H7.5V2.48633V4.01358H9.6345V2.48633ZM7.5 2.48633H9.02725V2.11133H7.5H5.97275V2.48633H7.5ZM7.5 2.11133V3.63858H7.875V2.11133V0.58408H7.5V2.11133ZM7.875 2.11133V3.63858C8.92585 3.63858 9.77725 2.78718 9.77725 1.73633H8.25H6.72275C6.72275 1.10023 7.2389 0.58408 7.875 0.58408V2.11133ZM8.25 1.73633H9.77725C9.77725 0.685477 8.92585 -0.16592 7.875 -0.16592V1.36133V2.88858C7.2389 2.88858 6.72275 2.37243 6.72275 1.73633H8.25ZM7.875 1.36133V-0.16592H4.125V1.36133V2.88858H7.875V1.36133ZM4.125 1.36133V-0.16592C3.07415 -0.16592 2.22275 0.685477 2.22275 1.73633H3.75H5.27725C5.27725 2.37243 4.7611 2.88858 4.125 2.88858V1.36133ZM3.75 1.73633H2.22275C2.22275 2.78718 3.07415 3.63858 4.125 3.63858V2.11133V0.58408C4.7611 0.58408 5.27725 1.10023 5.27725 1.73633H3.75ZM4.125 2.11133V3.63858H4.5V2.11133V0.58408H4.125V2.11133ZM4.5 2.11133H2.97275V2.48633H4.5H6.02725V2.11133H4.5ZM4.5 2.48633V0.95908H2.3655V2.48633V4.01358H4.5V2.48633ZM2.3655 2.48633V0.95908C0.837649 0.95908 -0.402249 2.19898 -0.402249 3.72683H1.125H2.65225C2.65225 3.88593 2.5246 4.01358 2.3655 4.01358V2.48633ZM1.125 3.72683H-0.402249V11.7462H1.125H2.65225V3.72683H1.125ZM1.125 11.7462H-0.402249C-0.402249 13.274 0.83795 14.5136 2.3655 14.5136V12.9863V11.4591C2.5243 11.4591 2.65225 11.5864 2.65225 11.7462H1.125ZM2.3655 12.9863V14.5136H9.63488V12.9863V11.4591H2.3655V12.9863ZM9.63488 12.9863V14.5136C11.1627 14.5136 12.4022 13.2734 12.4022 11.7458H10.875H9.34775C9.34775 11.587 9.4751 11.4591 9.63488 11.4591V12.9863ZM10.875 11.7458H12.4022V3.72683H10.875H9.34775V11.7458H10.875ZM10.875 3.72683H12.4022C12.4022 2.19898 11.1624 0.95908 9.6345 0.95908V2.48633V4.01358C9.4754 4.01358 9.34775 3.88593 9.34775 3.72683H10.875ZM5.25 2.11133V3.63858H6.75V2.11133V0.58408H5.25V2.11133ZM6.75 2.11133H5.22275V2.48633H6.75H8.27725V2.11133H6.75ZM6.75 2.48633V0.95908H5.25V2.48633V4.01358H6.75V2.48633ZM5.25 2.48633H6.77725V2.11133H5.25H3.72275V2.48633H5.25ZM10.125 11.7458H8.59775C8.59775 11.1727 9.0614 10.7091 9.6345 10.7091V12.2363V13.7636C10.7484 13.7636 11.6522 12.8597 11.6522 11.7458H10.125ZM9.6345 12.2363V10.7091H2.3655V12.2363V13.7636H9.6345V12.2363ZM2.3655 12.2363V10.7091C2.9386 10.7091 3.40225 11.1727 3.40225 11.7458H1.875H0.347751C0.347751 12.8597 1.25165 13.7636 2.3655 13.7636V12.2363ZM1.875 11.7458H3.40225V3.72683H1.875H0.347751V11.7458H1.875ZM1.875 3.72683H3.40225C3.40225 4.29993 2.9386 4.76358 2.3655 4.76358V3.23633V1.70908C1.25165 1.70908 0.347751 2.61298 0.347751 3.72683H1.875ZM2.3655 3.23633V4.76358H9.63488V3.23633V1.70908H2.3655V3.23633ZM9.63488 3.23633V4.76358C9.06064 4.76358 8.59775 4.29917 8.59775 3.72683H10.125H11.6522C11.6522 2.61374 10.7491 1.70908 9.63488 1.70908V3.23633ZM10.125 3.72683H8.59775V11.7458H10.125H11.6522V3.72683H10.125Z" fill="#CCDDDA" mask="url(#path-2-inside-1_9208_31114)"/>
<mask id="path-4-inside-2_9208_31114" fill="white">
<path d="M4.93684 9.19005C4.79022 9.04342 4.55322 9.04342 4.40659 9.19005L3.96109 9.63592L3.51559 9.19005C3.36897 9.04342 3.13197 9.04342 2.98534 9.19005C2.83872 9.33667 2.83872 9.57367 2.98534 9.7203L3.43122 10.1662L2.98497 10.612C2.83834 10.7587 2.83834 10.9957 2.98497 11.1423C3.05809 11.2154 3.15409 11.2522 3.25009 11.2522C3.34609 11.2522 3.44209 11.2154 3.51522 11.1423L3.96072 10.6964L4.40622 11.1423C4.47934 11.2154 4.57534 11.2522 4.67134 11.2522C4.76734 11.2522 4.86334 11.2154 4.93647 11.1423C5.08309 10.9957 5.08309 10.7587 4.93647 10.612L4.49059 10.1662L4.93647 9.7203C5.08347 9.57367 5.08347 9.33667 4.93684 9.19005Z"/>
</mask>
<path d="M4.93684 9.19005C4.79022 9.04342 4.55322 9.04342 4.40659 9.19005L3.96109 9.63592L3.51559 9.19005C3.36897 9.04342 3.13197 9.04342 2.98534 9.19005C2.83872 9.33667 2.83872 9.57367 2.98534 9.7203L3.43122 10.1662L2.98497 10.612C2.83834 10.7587 2.83834 10.9957 2.98497 11.1423C3.05809 11.2154 3.15409 11.2522 3.25009 11.2522C3.34609 11.2522 3.44209 11.2154 3.51522 11.1423L3.96072 10.6964L4.40622 11.1423C4.47934 11.2154 4.57534 11.2522 4.67134 11.2522C4.76734 11.2522 4.86334 11.2154 4.93647 11.1423C5.08309 10.9957 5.08309 10.7587 4.93647 10.612L4.49059 10.1662L4.93647 9.7203C5.08347 9.57367 5.08347 9.33667 4.93684 9.19005Z" fill="#CCDDDA"/>
<path d="M4.40659 9.19005L3.32667 8.11012L3.32621 8.11057L4.40659 9.19005ZM3.96109 9.63592L2.88071 10.7154L3.96109 11.7967L5.04148 10.7154L3.96109 9.63592ZM3.51559 9.19005L4.59598 8.11057L4.59552 8.11012L3.51559 9.19005ZM2.98534 9.7203L1.90542 10.8002L1.90542 10.8002L2.98534 9.7203ZM3.43122 10.1662L4.51069 11.2466L5.59153 10.1666L4.51115 9.08624L3.43122 10.1662ZM2.98497 10.612L1.9055 9.53166L1.90504 9.53212L2.98497 10.612ZM3.51522 11.1423L4.59515 12.2222L4.5956 12.2218L3.51522 11.1423ZM3.96072 10.6964L5.0411 9.61695L3.96072 8.53566L2.88034 9.61695L3.96072 10.6964ZM4.40622 11.1423L3.32584 12.2218L3.32629 12.2222L4.40622 11.1423ZM4.49059 10.1662L3.41067 9.08624L2.33074 10.1662L3.41067 11.2461L4.49059 10.1662ZM4.93647 9.7203L3.85792 8.63899L3.85654 8.64037L4.93647 9.7203ZM4.93684 9.19005L6.01677 8.11012C5.27372 7.36707 4.06972 7.36707 3.32667 8.11012L4.40659 9.19005L5.48652 10.27C5.03672 10.7198 4.30672 10.7198 3.85692 10.27L4.93684 9.19005ZM4.40659 9.19005L3.32621 8.11057L2.88071 8.55645L3.96109 9.63592L5.04148 10.7154L5.48698 10.2695L4.40659 9.19005ZM3.96109 9.63592L5.04148 8.55645L4.59598 8.11057L3.51559 9.19005L2.43521 10.2695L2.88071 10.7154L3.96109 9.63592ZM3.51559 9.19005L4.59552 8.11012C3.85247 7.36707 2.64847 7.36707 1.90542 8.11012L2.98534 9.19005L4.06527 10.27C3.61547 10.7198 2.88547 10.7198 2.43567 10.27L3.51559 9.19005ZM2.98534 9.19005L1.90542 8.11012C1.16236 8.85317 1.16236 10.0572 1.90542 10.8002L2.98534 9.7203L4.06527 8.64037C4.51507 9.09017 4.51507 9.82017 4.06527 10.27L2.98534 9.19005ZM2.98534 9.7203L1.90542 10.8002L2.35129 11.2461L3.43122 10.1662L4.51115 9.08624L4.06527 8.64037L2.98534 9.7203ZM3.43122 10.1662L2.35175 9.08579L1.9055 9.53166L2.98497 10.612L4.06444 11.6924L4.51069 11.2466L3.43122 10.1662ZM2.98497 10.612L1.90504 9.53212C1.16199 10.2752 1.16199 11.4792 1.90504 12.2222L2.98497 11.1423L4.0649 10.0624C4.5147 10.5122 4.5147 11.2422 4.0649 11.692L2.98497 10.612ZM2.98497 11.1423L1.90504 12.2222C2.27542 12.5926 2.76463 12.7794 3.25009 12.7794V11.2522V9.72492C3.54356 9.72492 3.84077 9.83824 4.0649 10.0624L2.98497 11.1423ZM3.25009 11.2522V12.7794C3.73556 12.7794 4.22477 12.5926 4.59515 12.2222L3.51522 11.1423L2.43529 10.0624C2.65942 9.83824 2.95663 9.72492 3.25009 9.72492V11.2522ZM3.51522 11.1423L4.5956 12.2218L5.0411 11.7759L3.96072 10.6964L2.88034 9.61695L2.43484 10.0628L3.51522 11.1423ZM3.96072 10.6964L2.88034 11.7759L3.32584 12.2218L4.40622 11.1423L5.4866 10.0628L5.0411 9.61695L3.96072 10.6964ZM4.40622 11.1423L3.32629 12.2222C3.69667 12.5926 4.18588 12.7794 4.67134 12.7794V11.2522V9.72492C4.96481 9.72492 5.26202 9.83824 5.48615 10.0624L4.40622 11.1423ZM4.67134 11.2522V12.7794C5.15681 12.7794 5.64602 12.5926 6.0164 12.2222L4.93647 11.1423L3.85654 10.0624C4.08067 9.83824 4.37788 9.72492 4.67134 9.72492V11.2522ZM4.93647 11.1423L6.0164 12.2222C6.75945 11.4792 6.75945 10.2752 6.0164 9.53212L4.93647 10.612L3.85654 11.692C3.40674 11.2422 3.40674 10.5122 3.85654 10.0624L4.93647 11.1423ZM4.93647 10.612L6.0164 9.53212L5.57052 9.08624L4.49059 10.1662L3.41067 11.2461L3.85654 11.692L4.93647 10.612ZM4.49059 10.1662L5.57052 11.2461L6.0164 10.8002L4.93647 9.7203L3.85654 8.64037L3.41067 9.08624L4.49059 10.1662ZM4.93647 9.7203L6.01502 10.8016C6.76005 10.0585 6.76006 8.85341 6.01677 8.11012L4.93684 9.19005L3.85692 10.27C3.40688 9.81994 3.40689 9.08887 3.85792 8.63899L4.93647 9.7203Z" fill="#CCDDDA" mask="url(#path-4-inside-2_9208_31114)"/>
<path d="M6.75233 9.29003C6.4002 9.58328 6.07658 9.6909 6.0732 9.69203C5.87708 9.75465 5.76795 9.96465 5.82983 10.1615C5.88008 10.3217 6.02783 10.424 6.18758 10.424C6.2247 10.424 6.26258 10.4184 6.30008 10.4068C6.34658 10.3922 6.7677 10.253 7.23195 9.8664C7.39133 9.73365 7.4127 9.4974 7.28033 9.3384C7.14795 9.17865 6.9117 9.15765 6.75233 9.29003Z" fill="#CCDDDA"/>
<path d="M8.07982 7.32382C7.87432 7.29195 7.68382 7.43332 7.65269 7.63807C7.60132 7.97295 7.50119 8.28157 7.35344 8.55532C7.25519 8.73757 7.32382 8.9652 7.50607 9.06307C7.56232 9.09345 7.62344 9.1077 7.68344 9.1077C7.81694 9.1077 7.94632 9.03645 8.01419 8.91045C8.20244 8.56095 8.33032 8.17057 8.39407 7.75057C8.42519 7.5462 8.28457 7.35495 8.07982 7.32382Z" fill="#CCDDDA"/>
<path d="M4.156 4.48633C3.4495 4.48633 2.875 5.0612 2.875 5.7677C2.875 6.4742 3.4495 7.04908 4.156 7.04908C4.8625 7.04908 5.43738 6.4742 5.43738 5.7677C5.43738 5.0612 4.8625 4.48633 4.156 4.48633ZM4.156 6.29908C3.86313 6.29908 3.625 6.06058 3.625 5.7677C3.625 5.47483 3.86313 5.23633 4.156 5.23633C4.44888 5.23633 4.68738 5.47483 4.68738 5.7677C4.68738 6.06058 4.44888 6.29908 4.156 6.29908Z" fill="#CCDDDA"/>
</g>
<defs>
<clipPath id="clip0_9208_31114">
<rect width="12" height="12" fill="white" transform="translate(0 0.986328)"/>
</clipPath>
</defs>
</svg>
