<svg width="72" height="87" viewBox="0 0 72 87" fill="none" xmlns="http://www.w3.org/2000/svg">
<g opacity="0.3">
<path opacity="0.3" d="M50.2812 17.8159C48.313 17.814 46.426 17.0313 45.0343 15.6396C43.6426 14.2479 42.8599 12.3609 42.858 10.3927V0.0859375H9.68759C7.11828 0.0859375 4.65422 1.10662 2.83744 2.9234C1.02066 4.74018 0 7.2042 0 9.77351V68.1727C0.00381541 70.7395 1.02615 73.1999 2.84251 75.0136C4.65888 76.8272 7.12077 77.8459 9.68759 77.8459H49.5072C52.074 77.8459 54.5359 76.8272 56.3523 75.0136C58.1686 73.1999 59.191 70.7395 59.1948 68.1727V17.8159H50.2812Z" fill="#FF3E4C"/>
</g>
<path d="M59.1942 17.8159H50.2806C48.3124 17.814 46.4254 17.0313 45.0337 15.6396C43.642 14.2479 42.8593 12.3609 42.8574 10.3927V0.0859375L59.1942 17.8159Z" fill="#FF3E4C"/>
<path d="M47.0164 54.3917H9.85C9.49196 54.3917 9.14857 54.2495 8.8954 53.9963C8.64222 53.7431 8.5 53.3998 8.5 53.0417C8.50095 52.6843 8.6436 52.3418 8.89667 52.0894C9.14974 51.837 9.49258 51.6953 9.85 51.6953H47.0164C47.3735 51.6953 47.7159 51.8371 47.9684 52.0896C48.2209 52.3421 48.3628 52.6846 48.3628 53.0417C48.3633 53.2188 48.3288 53.3943 48.2613 53.5581C48.1939 53.7218 48.0948 53.8706 47.9697 53.996C47.8446 54.1214 47.6961 54.221 47.5325 54.2889C47.3689 54.3568 47.1935 54.3917 47.0164 54.3917Z" fill="#FF3E4C"/>
<path d="M47.0164 39.1808H9.85C9.49258 39.1808 9.14974 39.039 8.89667 38.7866C8.6436 38.5342 8.50095 38.1918 8.5 37.8344C8.5 37.4763 8.64222 37.1329 8.8954 36.8797C9.14857 36.6265 9.49196 36.4844 9.85 36.4844H47.0164C47.1935 36.4844 47.3689 36.5193 47.5325 36.5872C47.6961 36.6551 47.8446 36.7546 47.9697 36.88C48.0948 37.0054 48.1939 37.1542 48.2613 37.318C48.3288 37.4818 48.3633 37.6573 48.3628 37.8344C48.3628 38.1915 48.2209 38.5339 47.9684 38.7864C47.7159 39.0389 47.3735 39.1808 47.0164 39.1808Z" fill="#FF3E4C"/>
<path d="M47.0164 46.7823H9.85C9.49196 46.7823 9.14857 46.6401 8.8954 46.3869C8.64222 46.1337 8.5 45.7904 8.5 45.4323C8.50095 45.0749 8.6436 44.7324 8.89667 44.48C9.14974 44.2276 9.49258 44.0859 9.85 44.0859H47.0164C47.3735 44.0859 47.7159 44.2278 47.9684 44.4803C48.2209 44.7328 48.3628 45.0752 48.3628 45.4323C48.3633 45.6094 48.3288 45.7849 48.2613 45.9487C48.1939 46.1125 48.0948 46.2613 47.9697 46.3867C47.8446 46.5121 47.6961 46.6116 47.5325 46.6795C47.3689 46.7474 47.1935 46.7823 47.0164 46.7823Z" fill="#FF3E4C"/>
<path d="M32.3572 31.5792H9.85C9.49258 31.5792 9.14974 31.4375 8.89667 31.1851C8.6436 30.9327 8.50095 30.5902 8.5 30.2328C8.5 29.8748 8.64222 29.5314 8.8954 29.2782C9.14857 29.0251 9.49196 28.8828 9.85 28.8828H32.3572C32.7146 28.8838 33.0571 29.0264 33.3095 29.2795C33.5619 29.5325 33.7036 29.8754 33.7036 30.2328C33.7027 30.5896 33.5605 30.9315 33.3082 31.1838C33.0559 31.4361 32.714 31.5783 32.3572 31.5792Z" fill="#FF3E4C"/>
<path d="M32.3572 23.9776H9.85C9.49258 23.9776 9.14974 23.8359 8.89667 23.5835C8.6436 23.3311 8.50095 22.9887 8.5 22.6313C8.5 22.2732 8.64222 21.9298 8.8954 21.6766C9.14857 21.4234 9.49196 21.2812 9.85 21.2812H32.3572C32.7146 21.2822 33.0571 21.4248 33.3095 21.6779C33.5619 21.931 33.7036 22.2738 33.7036 22.6313C33.7027 22.988 33.5605 23.3299 33.3082 23.5822C33.0559 23.8345 32.714 23.9767 32.3572 23.9776Z" fill="#FF3E4C"/>
<path d="M66.2179 61.5078H21.2035C18.0104 61.5078 15.4219 64.0963 15.4219 67.2894V80.7102C15.4219 83.9033 18.0104 86.4918 21.2035 86.4918H66.2179C69.411 86.4918 71.9995 83.9033 71.9995 80.7102V67.2894C71.9995 64.0963 69.411 61.5078 66.2179 61.5078Z" fill="#FF3E4C"/>
<path d="M30.1893 76.9062V79.5231H27.4824V76.9062H30.1893Z" fill="white"/>
<path d="M34.1716 75.7216V79.5191H31.5547V68.6953H35.795C37.08 68.6953 38.0627 69.0156 38.7358 69.6528C39.0764 69.9875 39.3423 70.3904 39.516 70.8353C39.6897 71.2801 39.7673 71.7566 39.7436 72.2336C39.7567 72.8629 39.6014 73.4843 39.2937 74.0334C38.9794 74.5702 38.5136 75.0023 37.9547 75.2753C37.2805 75.5939 36.5403 75.7481 35.795 75.7252L34.1716 75.7216ZM37.08 72.2336C37.08 71.2737 36.5545 70.7938 35.5034 70.7938H34.1716V73.6122H35.5034C36.5545 73.6218 37.08 73.1623 37.08 72.2336Z" fill="white"/>
<path d="M50.086 76.9114C49.6354 77.7298 48.9546 78.3982 48.1279 78.8336C47.1977 79.3098 46.1634 79.5461 45.1187 79.5211H41.0332V68.6973H45.1187C46.1641 68.671 47.2 68.9021 48.1351 69.3704C48.9595 69.7965 49.6386 70.458 50.086 71.271C50.5544 72.134 50.7901 73.1041 50.7699 74.0858C50.7895 75.0709 50.5539 76.0443 50.086 76.9114ZM47.2712 76.3679C47.5638 76.0675 47.7905 75.7095 47.9368 75.3165C48.0831 74.9235 48.1457 74.5044 48.1207 74.0858C48.1459 73.6678 48.0833 73.2491 47.937 72.8567C47.7907 72.4643 47.5639 72.1068 47.2712 71.8073C46.6165 71.2328 45.7613 70.9404 44.8919 70.9938H43.6501V77.1778H44.8919C45.7606 77.2306 46.6152 76.9397 47.2712 76.3679Z" fill="white"/>
<path d="M59.3126 68.6953V70.7795H54.8744V73.1515H58.3011V75.1421H54.8744V79.5191H52.2539V68.6953H59.3126Z" fill="white"/>
<path d="M46.3549 21.2812H39.9909C38.8817 21.2812 37.9824 22.1805 37.9824 23.2898V29.6538C37.9824 30.7631 38.8817 31.6623 39.9909 31.6623H46.3549C47.4642 31.6623 48.3635 30.7631 48.3635 29.6538V23.2898C48.3635 22.1805 47.4642 21.2812 46.3549 21.2812Z" fill="#FF3E4C"/>
</svg>
