<svg width="12" height="13" viewBox="0 0 12 13" fill="none" xmlns="http://www.w3.org/2000/svg">
<path d="M10.5 3.07812C8.835 2.91312 7.16 2.82812 5.49 2.82812C4.5 2.82812 3.51 2.87813 2.52 2.97813L1.5 3.07812" stroke="#292D32" stroke-linecap="round" stroke-linejoin="round"/>
<path d="M4.25 2.57094L4.36 1.91594C4.44 1.44094 4.5 1.08594 5.345 1.08594H6.655C7.5 1.08594 7.565 1.46094 7.64 1.92094L7.75 2.57094" stroke="#292D32" stroke-linecap="round" stroke-linejoin="round"/>
<path d="M9.42422 4.65625L9.09922 9.69125C9.04422 10.4762 8.99922 11.0862 7.60422 11.0862H4.39422C2.99922 11.0862 2.95422 10.4762 2.89922 9.69125L2.57422 4.65625" stroke="#292D32" stroke-linecap="round" stroke-linejoin="round"/>
<path d="M5.16406 8.33594H6.82906" stroke="#292D32" stroke-linecap="round" stroke-linejoin="round"/>
<path d="M4.75 6.33594H7.25" stroke="#292D32" stroke-linecap="round" stroke-linejoin="round"/>
</svg>
