<svg width="12" height="12" viewBox="0 0 12 12" fill="none" xmlns="http://www.w3.org/2000/svg">
<path d="M9.03464 4.25433L4.75464 2.11433C1.87964 0.674335 0.699644 1.85433 2.13964 4.72933L2.57464 5.59933C2.69964 5.85433 2.69964 6.14933 2.57464 6.40434L2.13964 7.26933C0.699644 10.1443 1.87464 11.3243 4.75464 9.88434L9.03464 7.74433C10.9546 6.78433 10.9546 5.21433 9.03464 4.25433ZM7.41964 6.37433H4.71964C4.51464 6.37433 4.34464 6.20433 4.34464 5.99933C4.34464 5.79433 4.51464 5.62433 4.71964 5.62433H7.41964C7.62464 5.62433 7.79464 5.79433 7.79464 5.99933C7.79464 6.20433 7.62464 6.37433 7.41964 6.37433Z" fill="url(#paint0_linear_6793_18064)"/>
<defs>
<linearGradient id="paint0_linear_6793_18064" x1="8.26627" y1="3.80509" x2="5.33714" y2="11.0612" gradientUnits="userSpaceOnUse">
<stop stop-color="white"/>
<stop offset="1" stop-color="#F5F6FB"/>
</linearGradient>
</defs>
</svg>
